<svg width="23" height="23" viewBox="0 0 23 23" fill="none" xmlns="http://www.w3.org/2000/svg">
<path d="M1.10183 1.43848e-07C0.809566 0.00219568 0.529954 0.119558 0.323674 0.326619C0.117395 0.533679 0.00109054 0.813733 0 1.10601V20.9821C0 21.5873 0.49666 22.0854 1.10183 22.0854H15.0904C15.3825 22.0839 15.6623 21.9672 15.8689 21.7606C16.0755 21.554 16.1922 21.2743 16.1936 20.9821V19.143C16.1936 18.6519 15.4563 18.6519 15.4563 19.143V20.9821C15.4576 21.0306 15.4491 21.0789 15.4312 21.1239C15.4133 21.169 15.3864 21.21 15.3522 21.2443C15.3179 21.2787 15.2771 21.3057 15.2321 21.3238C15.1871 21.3418 15.1389 21.3506 15.0904 21.3494H1.10183C1.05335 21.3506 1.00514 21.3418 0.96014 21.3238C0.915137 21.3057 0.874279 21.2787 0.840053 21.2443C0.805827 21.21 0.778948 21.169 0.761051 21.1239C0.743154 21.0789 0.734613 21.0306 0.735947 20.9821V1.10601C0.735947 0.895936 0.891762 0.735947 1.10183 0.735947H12.5153V2.5779C12.5153 3.18447 13.0133 3.68252 13.6185 3.68252H15.4577V11.042C15.4577 11.5331 16.195 11.5331 16.195 11.042V3.31524C16.1951 3.21777 16.1566 3.12423 16.0879 3.05508L13.1427 0.108514C13.1084 0.0740814 13.0677 0.0467681 13.0228 0.0281452C12.9779 0.00952228 12.9298 -4.2783e-05 12.8812 1.43848e-07H1.10183ZM13.2512 1.25904L14.936 2.94518H13.6185C13.5699 2.94652 13.5215 2.93794 13.4764 2.91996C13.4312 2.90198 13.3902 2.87497 13.3558 2.8406C13.3214 2.80622 13.2944 2.76519 13.2764 2.72003C13.2585 2.67486 13.2499 2.6265 13.2512 2.5779V1.25904ZM5.15163 2.94518C4.65079 2.93405 4.65079 3.69226 5.15163 3.68252H10.6733C11.1742 3.69365 11.1742 2.93544 10.6733 2.94518H5.15163ZM2.57373 5.89036H10.6705C11.1728 5.90149 11.1728 5.14328 10.6705 5.15441H2.55982C2.06176 5.1878 2.09654 5.90288 2.57651 5.89175L2.57373 5.89036ZM12.1438 5.89036H13.6171C14.1179 5.90149 14.1179 5.14328 13.6171 5.15441H12.1271C11.6305 5.1878 11.6639 5.90288 12.1452 5.89175L12.1438 5.89036ZM2.57373 8.09959H13.6171C14.1179 8.11072 14.1179 7.35251 13.6171 7.36364H2.55703C2.05898 7.39703 2.09376 8.11072 2.57373 8.09959ZM20.4145 8.83693C19.9874 8.83693 19.5603 8.99831 19.2362 9.32385L11.8823 16.6736C11.8386 16.7183 11.807 16.7733 11.7905 16.8336L11.0545 19.4087C11.0371 19.4715 11.0368 19.5379 11.0534 19.6009C11.07 19.6639 11.1031 19.7215 11.1492 19.7676C11.1953 19.8137 11.2528 19.8467 11.3158 19.8633C11.3789 19.88 11.4452 19.8796 11.508 19.8622L14.0873 19.1263C14.1466 19.1093 14.2006 19.0777 14.2445 19.0345L21.5971 11.6833C21.8308 11.4501 21.99 11.1526 22.0544 10.8287C22.1188 10.5048 22.0856 10.1691 21.9589 9.86416C21.8322 9.5592 21.6178 9.29875 21.3428 9.11586C21.0679 8.93297 20.7448 8.83589 20.4145 8.83693ZM20.4145 9.56453C20.5376 9.56499 20.6593 9.58981 20.7728 9.63757C20.8862 9.68532 20.989 9.75506 21.0754 9.84277C21.1632 9.92879 21.233 10.0315 21.2807 10.1448C21.3284 10.2582 21.3529 10.3799 21.3529 10.5029C21.3529 10.6259 21.3284 10.7476 21.2807 10.861C21.233 10.9743 21.1632 11.077 21.0754 11.163L20.7943 11.444L19.4727 10.1224L19.7551 9.84138C19.8412 9.75372 19.9438 9.68399 20.057 9.63623C20.1701 9.58847 20.2917 9.56502 20.4145 9.56453ZM2.55982 9.57288C2.08959 9.62852 2.12159 10.2935 2.57651 10.306H4.0484C4.55202 10.3506 4.59515 9.58261 4.06788 9.57149L2.55982 9.57288ZM5.52308 10.306H13.6199C14.1249 10.3506 14.1666 9.58261 13.6602 9.57149H5.50221C5.0292 9.62992 5.06537 10.2963 5.5203 10.306H5.52308ZM18.9565 10.6427L19.3572 11.0434L13.069 17.3316L12.6683 16.9337L18.9565 10.6427ZM19.8775 11.5637L20.2768 11.9644L13.9886 18.2526L13.5893 17.8533L19.8775 11.5637ZM2.57373 11.7793C2.07289 11.7682 2.07289 12.5264 2.57373 12.5153H13.6171C14.1179 12.5264 14.1179 11.7682 13.6171 11.7779L2.57373 11.7793ZM2.57373 13.9886C2.07289 13.9774 2.07289 14.7356 2.57373 14.7245H9.19864C9.69948 14.7356 9.69948 13.9774 9.19864 13.9872L2.57373 13.9886ZM10.6705 13.9886C10.1697 13.9774 10.1697 14.7356 10.6705 14.7245H12.1452C12.646 14.7356 12.646 13.9774 12.1452 13.9872L10.6705 13.9886ZM2.57373 16.9323H9.9332C10.4354 16.9435 10.4354 16.1867 9.9332 16.1964H2.55982C2.06176 16.2298 2.09654 16.9449 2.57651 16.9337L2.57373 16.9323ZM12.3261 17.6363L13.2832 18.5921L11.9449 18.9746L12.3261 17.6363ZM2.57373 19.1416H4.0484C4.54924 19.1527 4.54924 18.3959 4.0484 18.4056H2.55842C2.06037 18.439 2.09515 19.1541 2.57512 19.143L2.57373 19.1416ZM5.51891 19.1416H9.19864C9.69948 19.1527 9.69948 18.3959 9.19864 18.4056H5.50221C5.00277 18.4418 5.04033 19.1569 5.5203 19.143L5.51891 19.1416Z" fill="black"/>
</svg>
