<svg width="30" height="27" viewBox="0 0 30 27" fill="none" xmlns="http://www.w3.org/2000/svg">
<path d="M23.9932 7.32227C25.0432 7.98583 25.965 8.83869 26.709 9.8418C27.6876 11.1612 28.3297 12.6995 28.5791 14.3232C28.8978 16.4029 28.5541 18.5303 27.5957 20.4033L27.5107 20.5684L27.5547 20.748L28.1895 23.3828V23.3838L28.1934 23.3955C28.2722 23.692 28.2711 24.0045 28.1914 24.3008C28.1117 24.5969 27.956 24.8671 27.7393 25.084C27.5222 25.301 27.2515 25.4574 26.9551 25.5371C26.6587 25.6168 26.3464 25.617 26.0498 25.5381L23.4678 24.8496L23.2812 24.7998L23.1104 24.8877C21.698 25.6123 20.1323 25.989 18.5449 25.9854H18.5439C18.0369 25.9852 17.5306 25.9466 17.0293 25.8711H17.0283C15.4836 25.6257 14.0245 25.021 12.7637 24.1143C14.7138 23.808 16.5763 23.0868 18.2227 21.9961C19.8988 20.8857 21.3109 19.4206 22.3594 17.7051C23.4078 15.9895 24.0664 14.0645 24.29 12.0664C24.468 10.4766 24.366 8.87151 23.9932 7.32227ZM7.44238 1.00586C9.21514 0.422795 11.115 0.342005 12.9307 0.773438C14.7462 1.2049 16.4066 2.13111 17.7275 3.44922L17.874 3.5957H17.8818C19.2176 4.98482 20.1299 6.72733 20.5068 8.62012C20.897 10.5794 20.6973 12.6104 19.9326 14.4561C19.1679 16.3017 17.8726 17.8791 16.2109 18.9883C14.5493 20.0975 12.5955 20.6891 10.5977 20.6875H10.2939C8.81311 20.6651 7.35456 20.3122 6.02539 19.6533L5.85645 19.5693L5.6748 19.6182L3.0918 20.3066L3.08496 20.3086C2.79063 20.3916 2.47895 20.3937 2.18359 20.3145C1.88845 20.2352 1.6204 20.0774 1.40723 19.8584L1.39746 19.8486L1.31836 19.7666C1.14014 19.5682 1.01079 19.3299 0.941406 19.0713C0.862261 18.7761 0.864368 18.4651 0.947266 18.1709L0.949219 18.1611L1.63867 15.5117L1.68652 15.3281L1.59961 15.1582C0.641192 13.2852 0.296439 11.1578 0.615234 9.07812L0.616211 9.07715C0.896857 7.23235 1.68275 5.50101 2.8877 4.07617C4.09274 2.65126 5.66966 1.58892 7.44238 1.00586Z" stroke="black"/>
</svg>
