<svg width="29" height="20" viewBox="0 0 29 20" fill="none" xmlns="http://www.w3.org/2000/svg">
<path d="M25.5796 0H2.46484C1.10852 0 0 1.10365 0 2.46484V17.2539C0 18.6156 1.10923 19.7188 2.46484 19.7188H25.5796C26.9359 19.7188 28.0444 18.6151 28.0444 17.2539V2.46484C28.0444 1.10332 26.9354 0 25.5796 0ZM25.2011 1.64323L14.6589 12.2198C14.3377 12.542 13.7069 12.5422 13.3855 12.2198L2.84333 1.64323H25.2011ZM1.64323 16.9518V2.76692L8.71268 9.85938L1.64323 16.9518ZM2.84333 18.0755L9.87274 11.0232L12.2217 13.3799C13.1843 14.3456 14.8605 14.3452 15.8228 13.3799L18.1718 11.0233L25.2011 18.0755H2.84333ZM26.4012 16.9518L19.3318 9.85938L26.4012 2.76692V16.9518Z" fill="#7E7E7E"/>
</svg>
