<svg width="25" height="25" viewBox="0 0 25 25" fill="none" xmlns="http://www.w3.org/2000/svg">
<path d="M12.0156 15.0046C10.3566 15.0046 9.01172 16.3495 9.01172 18.0085V24.0163H15.0195V18.0085C15.0195 16.3495 13.6746 15.0046 12.0156 15.0046Z" fill="#6020BD"/>
<path d="M17.0221 18.0084V24.0162H21.0273C22.6862 24.0162 24.0311 22.6713 24.0311 21.0123V11.8795C24.0314 11.3593 23.8292 10.8594 23.4674 10.4857L14.9584 1.28671C13.457 -0.337741 10.923 -0.43748 9.2986 1.0639C9.22144 1.13525 9.14709 1.20955 9.0758 1.28671L0.58177 10.4827C0.209005 10.858 -0.000140736 11.3655 7.10528e-08 11.8945V21.0123C7.10528e-08 22.6713 1.3449 24.0162 3.00389 24.0162H7.00907V18.0084C7.0278 15.278 9.23223 13.0484 11.8938 12.9842C14.6445 12.9178 17.0011 15.1854 17.0221 18.0084Z" fill="#6020BD"/>
<path d="M12.0156 15.0046C10.3566 15.0046 9.01172 16.3495 9.01172 18.0085V24.0163H15.0195V18.0085C15.0195 16.3495 13.6746 15.0046 12.0156 15.0046Z" fill="#6020BD"/>
</svg>
