<svg width="21" height="24" viewBox="0 0 21 24" fill="none" xmlns="http://www.w3.org/2000/svg">
<path d="M18.0577 24.008H2.71967C1.21916 24.0033 0.00468909 22.7889 0 21.2884V20.0879C0 17.1526 1.23323 14.3532 3.40428 12.3791C4.30927 11.5585 5.65504 11.4459 6.68195 12.1071C7.75576 12.7964 9.03588 13.1622 10.391 13.1622C11.7462 13.1622 13.0263 12.7964 14.1001 12.1071C15.127 11.4459 16.4728 11.5585 17.3778 12.3791C19.5488 14.3532 20.7867 17.1526 20.782 20.0879V21.2884C20.7774 22.7935 19.5582 24.008 18.0577 24.008ZM5.21896 12.6135C4.77818 12.6135 4.35616 12.7776 4.03262 13.0731C2.05851 14.869 0.933129 17.4198 0.933129 20.0879V21.2884C0.937818 22.2731 1.73027 23.0655 2.71498 23.0702H18.053C19.0377 23.0702 19.8349 22.2731 19.8349 21.2884V20.0879C19.8349 17.4198 18.7095 14.8737 16.7354 13.0731C16.1445 12.5385 15.2677 12.4635 14.5971 12.8949C13.3733 13.6826 11.915 14.1 10.3816 14.1C8.84831 14.1 7.39001 13.6826 6.16615 12.8949C5.8895 12.712 5.55657 12.6135 5.21896 12.6135Z" fill="black"/>
<path d="M10.3907 12.0979C7.05209 12.0932 4.34649 9.38756 4.3418 6.04893C4.3418 2.71498 7.05209 0 10.3907 0C13.7294 0.00468909 16.435 2.71029 16.4397 6.04893C16.435 9.38287 13.7247 12.0979 10.3907 12.0979ZM10.3907 0.942507C7.56789 0.942507 5.27962 3.23078 5.27962 6.05362C5.27962 8.87645 7.56789 11.1647 10.3907 11.1647C13.2136 11.1647 15.5018 8.87645 15.5018 6.05362C15.4971 3.23078 13.2136 0.942507 10.3907 0.942507Z" fill="black"/>
</svg>
