<svg width="22" height="23" viewBox="0 0 22 23" fill="none" xmlns="http://www.w3.org/2000/svg">
<path d="M10.9522 22.0765C11.183 22.0765 11.4153 22.0689 11.6489 22.0537C23.7145 21.3612 25.9576 4.3689 14.5091 0.55314C13.4002 0.184737 12.239 -0.00204519 11.0705 1.68888e-05C8.90487 1.68888e-05 6.73926 0.629131 4.93722 1.84473H4.938C3.65354 2.69875 2.56236 3.81254 1.73487 5.11425C0.907377 6.41596 0.36194 7.87667 0.133748 9.40216L0.133055 9.40169C-0.915917 15.9802 4.38132 22.0765 10.9522 22.0765ZM20.5789 15.06C20.185 15.9925 19.6557 16.8618 19.0079 17.6397C18.9622 17.367 19.0884 17.0512 18.9004 16.7967C18.6964 16.3991 18.5075 15.9934 18.2949 15.6005C18.2159 15.4543 18.2377 15.3704 18.3542 15.2652C19.6016 14.1707 18.4895 14.7526 18.6121 13.1883C18.6165 13.146 18.6081 13.1034 18.588 13.0659C18.5679 13.0285 18.5371 12.9979 18.4994 12.9782C18.1645 12.7643 17.7716 12.63 17.3827 12.63C17.0769 12.6269 16.7776 12.7179 16.5252 12.8905C16.3043 12.9929 16.0636 13.0454 15.8202 13.0443C15.2115 13.0443 14.6071 12.7255 14.431 12.101C14.2131 11.52 14.2398 10.9332 14.2341 10.3399C14.2693 10.0199 14.7082 9.96616 14.637 9.5963C14.6539 9.12666 14.5009 8.6309 14.945 8.32438C14.9963 8.27654 15.0645 8.251 15.1347 8.25337C15.1557 8.25349 15.1768 8.25485 15.1977 8.25744C15.2682 8.26575 15.3391 8.26995 15.41 8.27001C15.7459 8.2686 16.0742 8.17047 16.3558 7.98736C16.5298 7.87701 16.7236 7.85383 16.9224 7.85383C17.0662 7.85383 17.2127 7.86592 17.3562 7.86592C17.4273 7.86647 17.4984 7.86242 17.569 7.85379C17.5874 7.85249 17.6054 7.85184 17.6229 7.85184C17.7 7.84921 17.7765 7.8655 17.8458 7.89928C17.9152 7.93306 17.9752 7.98331 18.0206 8.04563C18.2526 8.3385 18.6154 8.4245 18.9202 8.60239C18.9414 8.61578 18.9657 8.62326 18.9907 8.62405C19.0507 8.62405 19.0904 8.57064 19.1259 8.52441C19.382 8.19402 19.7745 8.08302 20.1186 7.89304C20.1407 7.88077 20.1656 7.87458 20.1908 7.8751C20.3922 7.8751 20.719 8.19735 21.0018 8.21022C21.6391 10.442 21.4911 12.9261 20.5788 15.06H20.5789ZM18.5237 3.88691C19.3077 4.7046 19.9515 5.64605 20.429 6.67333C20.4073 6.67632 20.3854 6.6779 20.3635 6.67805C20.0778 6.67805 20.2913 6.34878 20.1067 6.17089C19.9087 5.9942 19.7203 5.80696 19.5425 5.61002C19.4937 5.55803 19.4539 5.52891 19.4115 5.52891C19.374 5.52891 19.3343 5.55161 19.2844 5.60092C18.9985 5.88383 19.0145 5.8538 19.348 6.19186C19.7373 6.61982 20.0307 6.61267 19.3263 6.91005C19.2283 6.9542 19.1335 7.03292 19.0347 7.03292C18.972 7.03292 18.9076 7.00129 18.8397 6.90906C18.7338 6.76526 18.5897 6.66865 18.6067 6.44713C18.6331 6.10556 18.3725 5.85792 18.2519 5.56301C18.2386 5.53043 18.2216 5.51843 18.2034 5.51843C18.1728 5.51843 18.1396 5.55309 18.1183 5.58047C17.8647 5.90661 17.4815 6.03269 17.1344 6.21387C16.6884 6.60379 16.6498 6.67216 16.3319 6.67216C16.2224 6.67216 16.0798 6.66406 15.8761 6.65821H15.8723C15.8017 6.65821 15.7801 6.57156 15.7488 6.52057C15.3481 5.86472 15.4258 5.70485 15.8409 5.0857C15.9065 5.05795 15.9777 5.04608 16.0488 5.05104C16.3092 5.05104 16.7015 5.1344 16.7957 5.23262L16.7974 5.23444C16.8151 5.25334 16.838 5.26654 16.8633 5.27235C16.8885 5.27816 16.9149 5.27633 16.9391 5.26707C16.9632 5.25782 16.9841 5.24157 16.999 5.2204C17.0139 5.19923 17.0222 5.1741 17.0227 5.14822C17.0248 5.03415 17.0171 4.92978 17.0206 4.82628C17.1282 4.03998 17.7889 4.39433 18.2579 4.22355C18.4798 4.05441 18.5707 3.97005 18.5237 3.88691ZM18.4594 3.82102C18.1393 3.61258 17.4281 3.39284 17.4091 2.8778C17.7805 3.16771 18.1314 3.48286 18.4594 3.82102ZM3.73574 3.72137C4.33252 3.12373 5.00022 2.60139 5.72395 2.16602C5.93368 2.27308 6.09221 2.62453 6.32551 2.62453C6.37068 2.62386 6.41498 2.61195 6.4544 2.58987C6.78366 2.41709 7.13459 2.28005 7.37097 1.97111C7.39803 1.94041 7.43194 1.91652 7.46995 1.90137C7.50796 1.88622 7.549 1.88023 7.58976 1.88389C7.66137 1.88389 7.73732 1.89607 7.80924 1.89607C7.84461 1.89673 7.87991 1.89252 7.91413 1.88355C7.95038 1.87858 7.98693 1.87605 8.02352 1.87597C8.62253 1.87597 8.80189 2.59914 9.04468 3.03923C9.02263 3.05781 9.01067 3.07558 9.00097 3.07558H9.00014C8.91841 3.0664 8.83622 3.06183 8.75397 3.06189C8.25141 3.06189 8.55195 3.82578 8.88481 3.56064C8.92525 3.53546 8.97179 3.52181 9.01942 3.52117C9.31468 3.52117 9.55288 4.07785 9.67362 4.29182C9.76603 4.49398 9.83609 4.72767 10.102 4.72767C10.1436 4.72727 10.1851 4.72242 10.2257 4.7132C9.99336 4.94559 9.75945 5.17642 9.52974 5.41133C9.51769 5.42535 9.5028 5.43665 9.48605 5.44448C9.46931 5.45232 9.45109 5.45651 9.43261 5.45678C9.39652 5.45413 9.36109 5.44564 9.32772 5.43165C9.03892 5.3314 8.74617 5.24228 8.45837 5.13921C8.42061 5.12332 8.38058 5.1135 8.33975 5.11009C8.28343 5.11009 8.25631 5.15004 8.25834 5.26914C8.35669 5.79861 8.22503 5.89271 7.98379 5.89271C7.85087 5.89271 7.6846 5.86416 7.50523 5.86411C7.23259 5.86411 6.92967 5.9301 6.66721 6.2627C5.7333 7.20128 6.45604 7.98892 5.17251 8.97563C5.141 9.01023 5.09751 9.03156 5.05086 9.03529C5.03338 9.0365 5.01584 9.03386 4.99949 9.02757C4.98313 9.02128 4.96835 9.01147 4.95619 8.99886C4.44566 8.42299 3.59407 9.1735 3.81494 9.46074C3.89886 9.56991 3.88331 9.62715 3.87993 9.71081C3.89912 10.0444 4.37898 10.1038 4.28458 10.4794C4.25659 10.6206 4.33561 10.6478 4.43907 10.6478C4.50406 10.6478 4.57871 10.6371 4.6427 10.6371C4.66994 10.6364 4.69715 10.6395 4.7235 10.6465C4.75874 10.6517 4.79432 10.6543 4.82995 10.6544C5.02179 10.6544 5.17459 10.5715 5.30686 10.4104C5.39303 10.3054 5.77693 10.225 6.03905 10.225C6.11435 10.2198 6.18984 10.2322 6.25952 10.2612C6.38339 10.386 6.43542 10.581 6.52428 10.7334C6.6033 10.892 6.64186 10.9674 6.69394 10.9674C6.73921 10.9674 6.79467 10.9104 6.89574 10.8015C7.05663 10.6769 7.2555 10.6114 7.45896 10.616C7.8468 10.616 8.25921 10.8122 8.57288 10.9919C8.92147 11.1872 8.83716 11.851 9.27699 11.851C9.31129 11.8507 9.3455 11.8472 9.37915 11.8405C9.39077 11.8377 9.40267 11.8362 9.41463 11.8362C9.49954 11.8362 9.55075 11.9142 9.6024 11.9723C10.0064 12.4665 10.6588 12.4074 10.8978 13.0852C11.0518 13.3679 11.0353 13.6157 10.9045 13.8954C10.8115 14.4207 10.5532 14.8078 10.0077 14.955C9.5751 15.1103 10.3049 15.816 9.31476 16.0975C9.06084 16.1528 9.02796 16.3473 9.06084 16.5754C9.16586 17.1627 9.02324 17.606 8.37718 17.7608C8.18612 17.8239 8.22017 18.078 8.12949 18.2228C7.68377 19.0351 8.08894 19.6277 8.65658 20.1966C8.52825 20.2042 8.39707 20.2132 8.27017 20.2132C7.90451 20.2132 7.57403 20.1386 7.44618 19.7404C7.23103 19.1155 7.03633 18.4852 6.71729 17.901C6.61015 17.7048 6.67912 17.4769 6.67635 17.2641C6.59858 16.3936 5.70965 15.742 5.87662 14.8145C5.89898 14.6542 5.83455 14.6282 5.71251 14.6282C5.65415 14.6282 5.58254 14.6342 5.50104 14.6342C5.25895 14.6342 4.92864 14.5822 4.5927 14.1679C4.36404 13.8967 3.83197 13.2411 3.92386 12.9013C4.11167 12.4332 4.13147 11.8684 4.56506 11.5435C4.73364 11.4124 4.76232 11.0279 4.50402 11.0279C4.47634 11.0282 4.44881 11.0319 4.42205 11.039C4.34366 11.0528 4.26426 11.06 4.18467 11.0607C3.62826 11.0607 3.6601 10.6324 3.32906 10.6324C3.28821 10.6329 3.24758 10.6383 3.20801 10.6484C3.16621 10.653 3.1242 10.6553 3.08215 10.6553C2.79417 10.6553 2.57006 10.5404 2.33103 10.3252C1.51281 9.57269 1.27825 10.1303 0.809436 9.57234C1.12408 7.35613 2.15121 5.30245 3.73574 3.72137ZM0.605118 10.158C0.88716 10.3833 1.14945 10.4109 1.33626 10.4306C1.51822 10.4497 1.64997 10.4636 1.94961 10.7392L1.95394 10.7433C2.18031 10.9469 2.54354 11.218 3.08189 11.218C3.13521 11.2179 3.1885 11.2154 3.24159 11.2105C3.3916 11.3811 3.58645 11.5063 3.80402 11.5718C3.65741 11.8237 3.5819 12.0925 3.51596 12.3273C3.4839 12.4505 3.44549 12.5719 3.40089 12.6912C3.39274 12.7116 3.38579 12.7325 3.38009 12.7538C3.25844 13.2037 3.49131 13.734 4.15876 14.5265C4.47876 14.9192 4.85299 15.1362 5.29794 15.1858C5.33632 15.6946 5.57469 16.1232 5.77516 16.4838C5.93342 16.7684 6.08315 17.0377 6.11309 17.2911C6.11226 17.3231 6.10897 17.3628 6.10555 17.4044C6.08982 17.595 6.06599 17.8828 6.22309 18.1704C6.47502 18.6317 6.64511 19.133 6.8253 19.6637L6.91195 19.9182C7.09729 20.4874 7.55423 20.776 8.27021 20.776C8.39828 20.776 8.52245 20.7685 8.6425 20.7613L8.68985 20.7584C8.79818 20.752 8.90234 20.7145 8.98983 20.6503C9.07731 20.5861 9.14439 20.498 9.18299 20.3965C9.2216 20.2951 9.23008 20.1847 9.20743 20.0786C9.18477 19.9725 9.13194 19.8752 9.05529 19.7983C8.43069 19.1724 8.41435 18.8795 8.61806 18.5029C8.66477 18.4218 8.70029 18.3347 8.72365 18.244C9.41727 17.9928 9.74337 17.4015 9.63251 16.5851C10.3984 16.2962 10.4442 15.7056 10.4305 15.4016C10.85 15.2173 11.2873 14.8384 11.4456 14.0643C11.6237 13.6425 11.6131 13.2459 11.4136 12.8556C11.1949 12.282 10.7653 12.0593 10.4496 11.8957C10.273 11.8042 10.1336 11.7319 10.0385 11.6156C10.0337 11.6098 10.0289 11.6041 10.0239 11.5985C10.0194 11.5933 10.0148 11.5879 10.0102 11.5824C9.93872 11.4977 9.74888 11.2727 9.41463 11.2727H9.40865C9.40098 11.2538 9.39362 11.235 9.38699 11.2188C9.30337 11.0066 9.17708 10.6857 8.85007 10.5015C8.31484 10.1952 7.87271 10.0525 7.45875 10.0525C7.25828 10.0507 7.05949 10.0892 6.87417 10.1656C6.81815 10.0549 6.74565 9.95332 6.65915 9.86435C6.62547 9.83045 6.58762 9.80097 6.5465 9.77662C6.41419 9.6982 6.2529 9.66168 6.03879 9.66168C5.95214 9.66168 5.18326 9.67268 4.8711 10.0529C4.86016 10.0671 4.84754 10.0799 4.8335 10.091H4.82951C4.82735 10.091 4.82453 10.091 4.82085 10.0907C4.81652 10.0898 4.81218 10.0889 4.80755 10.0881C4.72423 9.8656 4.56298 9.71717 4.47395 9.63538L4.4597 9.62238C4.46725 9.52983 4.4571 9.43668 4.4298 9.34792C4.49905 9.37767 4.56527 9.41403 4.62753 9.45649C4.74985 9.54754 4.89799 9.59728 5.05047 9.59851C5.22832 9.59648 5.39928 9.52945 5.53111 9.41005C6.3843 8.74766 6.5196 8.10806 6.62835 7.59354C6.70525 7.22961 6.76079 6.96689 7.06618 6.65998C7.0814 6.64467 7.09574 6.62849 7.10912 6.61155C7.23138 6.45658 7.34255 6.4272 7.50493 6.4272C7.57628 6.4272 7.65076 6.43387 7.72961 6.44089C7.81193 6.44821 7.89702 6.4558 7.98353 6.4558C8.27493 6.4558 8.50252 6.35975 8.66005 6.17029C8.73587 6.07836 8.79033 5.97073 8.81948 5.85519C8.9271 5.89054 9.0371 5.92689 9.14467 5.96424C9.2366 5.99938 9.33395 6.01821 9.43235 6.01987C9.52581 6.01943 9.61823 6.00019 9.70409 5.96327C9.78996 5.92636 9.86752 5.87254 9.93214 5.80502C10.0961 5.63735 10.2663 5.46765 10.431 5.30362C10.4953 5.23953 10.5595 5.17541 10.6237 5.11126C10.7024 5.03256 10.756 4.93231 10.7777 4.82317C10.7995 4.71403 10.7884 4.60089 10.7459 4.49803C10.7034 4.39517 10.6314 4.30721 10.539 4.24524C10.4465 4.18327 10.3378 4.15008 10.2265 4.14985L10.2188 4.13217C10.2078 4.10709 10.1968 4.08209 10.1855 4.05748C10.1789 4.04304 10.1717 4.02883 10.1639 4.01485C10.1457 3.98179 10.128 3.94847 10.1107 3.9149C9.9963 3.69551 9.83466 3.38548 9.59018 3.17839C9.62567 3.03958 9.60685 2.89247 9.53758 2.76706C9.49759 2.69463 9.45527 2.60286 9.41043 2.50569C9.20489 2.05919 8.86033 1.31253 8.02361 1.31253C7.96174 1.31261 7.89995 1.31686 7.83866 1.32523C7.82502 1.32707 7.81146 1.32941 7.79798 1.33224C7.78377 1.33155 7.76371 1.3299 7.74555 1.32843C7.70223 1.32488 7.64872 1.32046 7.58984 1.32046C7.24862 1.32046 7.04604 1.47955 6.93621 1.61294C6.93194 1.61809 6.92779 1.62333 6.92377 1.62867C6.80749 1.78061 6.60855 1.8813 6.37789 1.99693C6.30805 1.91674 6.23178 1.84239 6.14983 1.77463C7.66799 0.978945 9.35645 0.563269 11.0705 0.563235C12.1785 0.560606 13.2796 0.737645 14.331 1.08746C15.3012 1.40639 16.2229 1.8575 17.07 2.42805C16.9976 2.48265 16.9395 2.55394 16.9005 2.63584C16.8615 2.71774 16.843 2.80784 16.8463 2.89847C16.8604 3.28206 17.0522 3.55899 17.2886 3.76496C16.9774 3.83861 16.6426 4.03062 16.5059 4.53449C16.3551 4.50672 16.2022 4.49114 16.0489 4.48791C15.8398 4.48791 15.6816 4.52439 15.5512 4.60263C15.4801 4.64529 15.4194 4.70312 15.3732 4.77199C14.8726 5.51882 14.7215 5.91337 15.262 6.80391L15.2642 6.80824C15.4315 7.14881 15.6861 7.22104 15.8707 7.22147C15.9458 7.22368 16.0123 7.22619 16.0717 7.2284C16.1704 7.23213 16.2556 7.23533 16.3317 7.23533C16.8284 7.23533 17.0227 7.06355 17.3755 6.7517C17.3998 6.73034 17.4254 6.70764 17.4528 6.68355C17.5036 6.65839 17.5546 6.63369 17.6059 6.60947C17.7555 6.54099 17.9014 6.46447 18.0429 6.38024C18.0447 6.38795 18.0454 6.39589 18.045 6.40381C18.0138 6.80837 18.2241 7.05259 18.337 7.18365C18.3564 7.20613 18.3746 7.22736 18.386 7.24278C18.6122 7.55004 18.8894 7.59592 19.0345 7.59592C19.2044 7.59034 19.3696 7.53914 19.513 7.44771C19.5269 7.43982 19.5456 7.4293 19.5548 7.42466C19.7127 7.35798 19.889 7.28247 20.0324 7.17165C20.1366 7.2174 20.2493 7.24101 20.3631 7.24096C20.4096 7.24081 20.4561 7.23762 20.5021 7.23143C20.5959 7.21909 20.685 7.18333 20.7613 7.12745C20.8186 7.281 20.8724 7.43613 20.9226 7.59285C20.8862 7.57292 20.8491 7.55143 20.8203 7.53479C20.6401 7.43029 20.4359 7.31189 20.1902 7.31189C20.069 7.31154 19.9498 7.34222 19.8439 7.40101C19.7688 7.44238 19.6856 7.48181 19.5975 7.52353C19.379 7.62712 19.1198 7.74994 18.8892 7.95586L18.8644 7.94438C18.6898 7.86341 18.5391 7.79348 18.4615 7.69561C18.3631 7.56696 18.2359 7.46313 18.0902 7.39241C17.9445 7.3217 17.7842 7.28606 17.6223 7.28836C17.5917 7.28836 17.5601 7.28949 17.5284 7.29174C17.5175 7.29252 17.5068 7.29365 17.4957 7.29503C17.4492 7.3005 17.4024 7.30298 17.3556 7.30244C17.2955 7.30244 17.2308 7.29976 17.1623 7.2969C17.0851 7.29369 17.0054 7.29036 16.9218 7.29036C16.6802 7.29036 16.3634 7.31544 16.0547 7.51075C15.863 7.63697 15.6389 7.70497 15.4094 7.70653C15.3604 7.70649 15.3114 7.70359 15.2627 7.69786C15.22 7.69268 15.177 7.69003 15.134 7.68994C14.9386 7.68791 14.7487 7.75498 14.598 7.87931C14.0236 8.29427 14.0503 8.90176 14.0682 9.30551C14.0725 9.40229 14.0765 9.49375 14.0735 9.57585C14.0735 9.58096 14.0732 9.58603 14.0732 9.59114L14.0585 9.60483C13.9375 9.71717 13.7124 9.9263 13.6737 10.2781C13.6713 10.3004 13.6701 10.3227 13.6703 10.3451C13.671 10.4133 13.6713 10.4814 13.6715 10.5494C13.6732 11.104 13.6752 11.6772 13.8952 12.2773C14.1318 13.0739 14.9018 13.6074 15.8196 13.6074C16.1463 13.6083 16.4691 13.5373 16.7653 13.3995C16.7924 13.3866 16.8185 13.3716 16.8433 13.3546C17.0019 13.2466 17.1901 13.1901 17.382 13.193C17.6114 13.1979 17.8365 13.2562 18.0394 13.3633C18.029 13.9726 18.1916 14.3178 18.3187 14.5285C18.2543 14.5948 18.1503 14.694 17.9821 14.8416L17.976 14.847C17.6646 15.1283 17.6001 15.5004 17.799 15.8681C17.9239 16.0991 18.0393 16.3325 18.1614 16.5796C18.2381 16.7347 18.3174 16.8951 18.3987 17.0536C18.411 17.0774 18.4249 17.1004 18.4404 17.1223C18.4451 17.1848 18.4447 17.2475 18.4394 17.3099C18.4278 17.4508 18.432 17.5926 18.4519 17.7326C18.4668 17.8217 18.503 17.9058 18.5572 17.978C18.6115 18.0502 18.6824 18.1083 18.7638 18.1473C18.6437 18.2832 18.5201 18.4155 18.393 18.5443C16.6404 20.3183 14.2969 21.3373 11.616 21.4912L11.6117 21.4914C11.3925 21.5058 11.1705 21.5131 10.9517 21.5131C7.96157 21.5131 5.09609 20.1646 3.09004 17.8132C2.13376 16.6929 1.41908 15.3873 0.990749 13.9781C0.616843 12.7415 0.485889 11.4443 0.605118 10.158Z" fill="black"/>
</svg>
