<svg width="20" height="20" viewBox="0 0 20 20" fill="none" xmlns="http://www.w3.org/2000/svg">
<path d="M9.9873 1.6665C12.5446 1.6665 14.6025 3.67923 14.6025 6.16357V7.44092C16.0377 7.88889 17.0838 9.18805 17.084 10.7397V14.854C17.084 16.7752 15.491 18.3334 13.5273 18.3335H6.47461C4.51007 18.3335 2.91699 16.7752 2.91699 14.854V10.7397C2.91718 9.18805 3.96412 7.88889 5.39844 7.44092V6.16357C5.4069 3.67933 7.46404 1.66667 9.9873 1.6665ZM9.99609 11.1538C9.58975 11.1538 9.25995 11.4762 9.25977 11.8735V13.7124C9.25983 14.1181 9.58968 14.4409 9.99609 14.4409C10.411 14.4409 10.7411 14.1181 10.7412 13.7124V11.8735C10.741 11.4762 10.4109 11.1538 9.99609 11.1538ZM10.0049 3.11572C8.28591 3.11572 6.88835 4.47418 6.87988 6.14697V7.26123H13.1211V6.16357C13.1211 4.4826 11.7237 3.11589 10.0049 3.11572Z" fill="#9E9E9E"/>
</svg>
