<svg class="svg-icon" style="width: 1em;height: 1em;vertical-align: middle;fill: currentColor;overflow: hidden;" viewBox="0 0 1024 1024" version="1.1" xmlns="http://www.w3.org/2000/svg"><path d="M511.3 114.2c32.9 0 63.8 12.8 87 36.1 23.3 23.3 36.1 54.2 36.1 87s-12.8 63.8-36.1 87c-23.3 23.3-54.2 36.1-87 36.1s-63.8-12.8-87-36.1c-23.3-23.3-36.1-54.2-36.1-87s12.8-63.8 36.1-87c23.2-23.3 54.2-36.1 87-36.1m0-50c-95.6 0-173.1 77.5-173.1 173.1s77.5 173.1 173.1 173.1 173.1-77.5 173.1-173.1S606.9 64.2 511.3 64.2zM742.9 556.3c6.3 6.3 12.4 12.9 18.2 19.7h62.7c-67.9-100-182.5-165.6-312.5-165.6-201.7 0-366.5 158.2-377 357.4h50.1c2.2-37.1 10.6-73.2 25.1-107.4 16.5-39 40.1-74 70.2-104.1 30.1-30.1 65.1-53.7 104.1-70.2 40.3-17.1 83.2-25.7 127.5-25.7 44.2 0 87.1 8.7 127.5 25.7 39 16.5 74 40.1 104.1 70.2z" fill="#999999" /><path d="M864.2 742H326l205.2-123.4 25.8 42.8-50.8 30.6h358zM326 782.6h538.2L658.9 906l-25.7-42.9 50.8-30.5H326z" fill="#999999" /></svg>