<svg width="208" height="82" viewBox="0 0 208 82" fill="none" xmlns="http://www.w3.org/2000/svg">
<path d="M11.5381 40.284C10.8991 40.284 10.3784 40.1302 9.976 39.8225C9.59732 39.5148 9.28964 39.0296 9.05296 38.3669L1.63308 17.3854C1.37274 16.628 1.42007 15.989 1.77509 15.4683C2.15378 14.9476 2.78097 14.6872 3.65668 14.6872C4.29572 14.6872 4.79274 14.8411 5.14776 15.1487C5.50278 15.4328 5.78679 15.8943 5.9998 16.5333L12.3901 35.4913H10.9701L17.6444 16.5688C17.8811 15.9298 18.1769 15.4564 18.5319 15.1487C18.887 14.8411 19.3485 14.6872 19.9165 14.6872C20.4845 14.6872 20.9342 14.8411 21.2656 15.1487C21.5969 15.4564 21.8809 15.9416 22.1176 16.6043L28.5789 35.4913H27.3364L33.8332 16.5333C34.0462 15.9179 34.3302 15.4564 34.6853 15.1487C35.0403 14.8411 35.5255 14.6872 36.1408 14.6872C36.8982 14.6872 37.4544 14.9476 37.8094 15.4683C38.1644 15.989 38.2118 16.628 37.9514 17.3854L30.4605 38.4024C30.2239 39.0415 29.9162 39.5148 29.5375 39.8225C29.1588 40.1302 28.6499 40.284 28.0109 40.284C27.3719 40.284 26.863 40.1302 26.4843 39.8225C26.1057 39.5148 25.798 39.0296 25.5613 38.3669L19.384 20.758H20.2005L13.9522 38.4024C13.7155 39.0415 13.4078 39.5148 13.0292 39.8225C12.6741 40.1302 12.1771 40.284 11.5381 40.284ZM45.8004 40.2485C45.0903 40.2485 44.546 40.0355 44.1673 39.6095C43.7886 39.1835 43.5993 38.5918 43.5993 37.8344V24.8052C43.5993 24.0242 43.7886 23.4325 44.1673 23.0301C44.546 22.6041 45.0903 22.3911 45.8004 22.3911C46.5104 22.3911 47.0548 22.6041 47.4334 23.0301C47.8358 23.4325 48.037 24.0242 48.037 24.8052V37.8344C48.037 38.5918 47.8476 39.1835 47.4689 39.6095C47.0903 40.0355 46.5341 40.2485 45.8004 40.2485ZM45.8004 19.0894C44.972 19.0894 44.3211 18.8883 43.8478 18.4859C43.3981 18.0599 43.1732 17.48 43.1732 16.7463C43.1732 15.989 43.3981 15.4091 43.8478 15.0067C44.3211 14.6044 44.972 14.4032 45.8004 14.4032C46.6524 14.4032 47.3033 14.6044 47.753 15.0067C48.2027 15.4091 48.4275 15.989 48.4275 16.7463C48.4275 17.48 48.2027 18.0599 47.753 18.4859C47.3033 18.8883 46.6524 19.0894 45.8004 19.0894ZM60.6005 40.355C59.062 40.355 57.7721 40.0947 56.7308 39.574C55.713 39.0533 54.9557 38.2959 54.4586 37.3019C53.9616 36.2841 53.7131 35.0297 53.7131 33.5387V25.9768H51.867C51.299 25.9768 50.8611 25.8348 50.5534 25.5508C50.2458 25.2431 50.0919 24.8289 50.0919 24.3082C50.0919 23.7638 50.2458 23.3497 50.5534 23.0656C50.8611 22.7816 51.299 22.6396 51.867 22.6396H53.7131V19.409C53.7131 18.6753 53.9024 18.1191 54.2811 17.7404C54.6835 17.3617 55.2397 17.1723 55.9497 17.1723C56.6598 17.1723 57.2041 17.3617 57.5828 17.7404C57.9615 18.1191 58.1508 18.6753 58.1508 19.409V22.6396H61.914C62.482 22.6396 62.9199 22.7816 63.2276 23.0656C63.5353 23.3497 63.6891 23.7638 63.6891 24.3082C63.6891 24.8289 63.5353 25.2431 63.2276 25.5508C62.9199 25.8348 62.482 25.9768 61.914 25.9768H58.1508V33.2902C58.1508 34.4262 58.3993 35.2783 58.8964 35.8463C59.3934 36.4143 60.1981 36.6983 61.3105 36.6983C61.7128 36.6983 62.0679 36.6628 62.3755 36.5918C62.6832 36.5208 62.9554 36.4735 63.1921 36.4498C63.4761 36.4262 63.7128 36.5208 63.9021 36.7338C64.0915 36.9232 64.1861 37.3255 64.1861 37.9409C64.1861 38.4143 64.1033 38.8403 63.9376 39.219C63.7956 39.574 63.5234 39.8225 63.1211 39.9645C62.8134 40.0592 62.411 40.142 61.914 40.213C61.417 40.3077 60.9791 40.355 60.6005 40.355ZM68.9251 40.284C68.215 40.284 67.6707 40.0947 67.292 39.716C66.9133 39.3136 66.724 38.7456 66.724 38.0119V16.9238C66.724 16.1901 66.9133 15.6339 67.292 15.2552C67.6707 14.8766 68.215 14.6872 68.9251 14.6872C69.6351 14.6872 70.1795 14.8766 70.5581 15.2552C70.9605 15.6339 71.1617 16.1901 71.1617 16.9238V26.1188H70.6647C71.1853 24.8644 71.9901 23.9177 73.0788 23.2787C74.1912 22.616 75.4456 22.2846 76.842 22.2846C78.2384 22.2846 79.3863 22.545 80.2856 23.0656C81.185 23.5863 81.8596 24.3792 82.3092 25.4443C82.7589 26.4856 82.9838 27.8111 82.9838 29.4205V38.0119C82.9838 38.7456 82.7944 39.3136 82.4157 39.716C82.0371 40.0947 81.4927 40.284 80.7827 40.284C80.0726 40.284 79.5164 40.0947 79.1141 39.716C78.7354 39.3136 78.5461 38.7456 78.5461 38.0119V29.6335C78.5461 28.2844 78.2857 27.3022 77.765 26.6868C77.268 26.0715 76.4869 25.7638 75.4219 25.7638C74.1202 25.7638 73.0788 26.178 72.2977 27.0063C71.5404 27.8111 71.1617 28.8879 71.1617 30.237V38.0119C71.1617 39.5266 70.4161 40.284 68.9251 40.284ZM90.0472 40.284C89.3845 40.284 88.8757 40.0947 88.5207 39.716C88.1657 39.3373 87.9881 38.8166 87.9881 38.1539V16.8173C87.9881 16.131 88.1775 15.6103 88.5562 15.2552C88.9349 14.8766 89.4556 14.6872 90.1183 14.6872C90.7099 14.6872 91.1715 14.8056 91.5028 15.0422C91.8578 15.2553 92.1774 15.6339 92.4614 16.1783L101.23 32.4026H100.094L108.863 16.1783C109.147 15.6339 109.455 15.2553 109.786 15.0422C110.118 14.8056 110.579 14.6872 111.171 14.6872C111.834 14.6872 112.342 14.8766 112.697 15.2552C113.052 15.6103 113.23 16.131 113.23 16.8173V38.1539C113.23 38.8166 113.052 39.3373 112.697 39.716C112.366 40.0947 111.857 40.284 111.171 40.284C110.508 40.284 109.999 40.0947 109.644 39.716C109.289 39.3373 109.112 38.8166 109.112 38.1539V21.7166H109.893L102.437 35.3138C102.201 35.7161 101.952 36.012 101.692 36.2013C101.431 36.3907 101.076 36.4853 100.627 36.4853C100.177 36.4853 99.8102 36.3907 99.5262 36.2013C99.2422 35.9883 98.9937 35.6924 98.7807 35.3138L91.2543 21.6811H92.1064V38.1539C92.1064 38.8166 91.9288 39.3373 91.5738 39.716C91.2425 40.0947 90.7336 40.284 90.0472 40.284ZM122.715 46.6743C122.194 46.6743 121.768 46.5323 121.437 46.2483C121.105 45.988 120.904 45.633 120.833 45.1833C120.786 44.7336 120.869 44.2602 121.082 43.7632L123.496 38.4024V40.2485L117.034 25.3023C116.821 24.7816 116.75 24.2964 116.821 23.8467C116.892 23.397 117.105 23.042 117.46 22.7816C117.839 22.4976 118.348 22.3556 118.987 22.3556C119.531 22.3556 119.969 22.4858 120.301 22.7461C120.632 22.9828 120.928 23.4443 121.188 24.1307L125.981 36.0948H124.916L129.815 24.0952C130.075 23.4325 130.383 22.9828 130.738 22.7461C131.093 22.4858 131.567 22.3556 132.158 22.3556C132.679 22.3556 133.093 22.4976 133.401 22.7816C133.708 23.042 133.898 23.397 133.969 23.8467C134.04 24.2727 133.957 24.7461 133.72 25.2668L125.093 44.9703C124.786 45.633 124.454 46.0826 124.099 46.3193C123.744 46.556 123.283 46.6743 122.715 46.6743ZM137.674 40.284C137.106 40.284 136.644 40.1538 136.289 39.8935C135.958 39.6331 135.757 39.29 135.686 38.8639C135.615 38.4143 135.698 37.9172 135.934 37.3729L145.307 16.6043C145.615 15.9179 145.981 15.4328 146.407 15.1487C146.857 14.8411 147.366 14.6872 147.934 14.6872C148.478 14.6872 148.964 14.8411 149.39 15.1487C149.839 15.4328 150.218 15.9179 150.526 16.6043L159.934 37.3729C160.194 37.9172 160.289 38.4143 160.218 38.8639C160.147 39.3136 159.945 39.6686 159.614 39.929C159.283 40.1657 158.845 40.284 158.301 40.284C157.638 40.284 157.117 40.1302 156.738 39.8225C156.383 39.4911 156.064 38.9941 155.78 38.3314L153.472 32.9706L155.389 34.2132H140.408L142.325 32.9706L140.053 38.3314C139.745 39.0178 139.425 39.5148 139.094 39.8225C138.763 40.1302 138.289 40.284 137.674 40.284ZM147.863 19.906L142.893 31.7281L141.97 30.592H153.827L152.94 31.7281L147.934 19.906H147.863ZM169.702 40.355C168.258 40.355 167.063 40.0947 166.116 39.574C165.169 39.0296 164.459 38.2249 163.986 37.1599C163.536 36.0948 163.311 34.7694 163.311 33.1837V24.5922C163.311 23.8348 163.501 23.2787 163.879 22.9236C164.258 22.545 164.802 22.3556 165.512 22.3556C166.222 22.3556 166.767 22.545 167.145 22.9236C167.548 23.2787 167.749 23.8348 167.749 24.5922V33.2547C167.749 34.4854 167.998 35.3966 168.495 35.9883C168.992 36.58 169.784 36.8758 170.873 36.8758C172.057 36.8758 173.027 36.4735 173.784 35.6688C174.542 34.8404 174.92 33.7517 174.92 32.4026V24.5922C174.92 23.8348 175.11 23.2787 175.488 22.9236C175.867 22.545 176.411 22.3556 177.121 22.3556C177.832 22.3556 178.376 22.545 178.755 22.9236C179.157 23.2787 179.358 23.8348 179.358 24.5922V38.0119C179.358 39.5266 178.636 40.284 177.192 40.284C176.506 40.284 175.974 40.0947 175.595 39.716C175.216 39.3136 175.027 38.7456 175.027 38.0119V35.3138L175.524 36.3788C175.027 37.6569 174.27 38.6391 173.252 39.3255C172.258 40.0118 171.074 40.355 169.702 40.355ZM191.929 40.355C190.391 40.355 189.101 40.0947 188.06 39.574C187.042 39.0533 186.285 38.2959 185.788 37.3019C185.291 36.2841 185.042 35.0297 185.042 33.5387V25.9768H183.196C182.628 25.9768 182.19 25.8348 181.882 25.5508C181.575 25.2431 181.421 24.8289 181.421 24.3082C181.421 23.7638 181.575 23.3497 181.882 23.0656C182.19 22.7816 182.628 22.6396 183.196 22.6396H185.042V19.409C185.042 18.6753 185.231 18.1191 185.61 17.7404C186.012 17.3617 186.569 17.1723 187.279 17.1723C187.989 17.1723 188.533 17.3617 188.912 17.7404C189.29 18.1191 189.48 18.6753 189.48 19.409V22.6396H193.243C193.811 22.6396 194.249 22.7816 194.556 23.0656C194.864 23.3497 195.018 23.7638 195.018 24.3082C195.018 24.8289 194.864 25.2431 194.556 25.5508C194.249 25.8348 193.811 25.9768 193.243 25.9768H189.48V33.2902C189.48 34.4262 189.728 35.2783 190.225 35.8463C190.722 36.4143 191.527 36.6983 192.639 36.6983C193.042 36.6983 193.397 36.6628 193.704 36.5918C194.012 36.5208 194.284 36.4735 194.521 36.4498C194.805 36.4262 195.042 36.5208 195.231 36.7338C195.42 36.9232 195.515 37.3255 195.515 37.9409C195.515 38.4143 195.432 38.8403 195.267 39.219C195.125 39.574 194.852 39.8225 194.45 39.9645C194.142 40.0592 193.74 40.142 193.243 40.213C192.746 40.3077 192.308 40.355 191.929 40.355ZM200.254 40.2485C199.544 40.2485 199 40.0355 198.621 39.6095C198.242 39.1835 198.053 38.5918 198.053 37.8344V24.8052C198.053 24.0242 198.242 23.4325 198.621 23.0301C199 22.6041 199.544 22.3911 200.254 22.3911C200.964 22.3911 201.508 22.6041 201.887 23.0301C202.289 23.4325 202.491 24.0242 202.491 24.8052V37.8344C202.491 38.5918 202.301 39.1835 201.923 39.6095C201.544 40.0355 200.988 40.2485 200.254 40.2485ZM200.254 19.0894C199.426 19.0894 198.775 18.8883 198.301 18.4859C197.852 18.0599 197.627 17.48 197.627 16.7463C197.627 15.989 197.852 15.4091 198.301 15.0067C198.775 14.6044 199.426 14.4032 200.254 14.4032C201.106 14.4032 201.757 14.6044 202.207 15.0067C202.656 15.4091 202.881 15.989 202.881 16.7463C202.881 17.48 202.656 18.0599 202.207 18.4859C201.757 18.8883 201.106 19.0894 200.254 19.0894Z" fill="url(#paint0_linear_3003_5789)"/>
<path opacity="0.86" d="M22.3511 62.9463C22.4047 62.9463 22.454 62.9687 22.4987 63.0134C22.5524 63.0492 22.5926 63.0939 22.6195 63.1476C22.3511 63.8277 22.2079 64.2482 22.19 64.4092L22.0558 64.4361C22.02 64.2929 21.9753 64.1856 21.9216 64.114C21.8679 64.0334 21.7695 63.9842 21.6263 63.9663C19.9352 63.7426 18.7362 63.6308 18.0294 63.6308C17.8325 63.6308 17.7072 63.6442 17.6536 63.6711C17.5999 63.6979 17.5507 63.7605 17.5059 63.859C17.3538 64.2348 17.0809 65.2593 16.6872 66.9325H18.083C19.0315 66.9325 19.7115 66.9191 20.1231 66.8922C20.5347 66.8564 20.9015 66.7893 21.2237 66.6909L21.2908 66.758C21.2192 66.9548 21.1744 67.1159 21.1566 67.2412C21.1387 67.3575 21.1208 67.447 21.1029 67.5096C21.076 67.617 21.0402 67.6841 20.9955 67.7109C20.9597 67.7378 20.8926 67.7512 20.7942 67.7512C20.0605 67.7512 18.6378 67.7333 16.5262 67.6975C16.1682 69.3707 15.9893 70.4534 15.9893 70.9455C15.9893 71.2766 16.0877 71.4958 16.2846 71.6031C16.4904 71.7016 16.8572 71.7508 17.3851 71.7508C18.2352 71.7508 19.0718 71.6613 19.8949 71.4823C20.7271 71.2944 21.3847 70.9723 21.8679 70.516C21.9305 70.5339 21.9618 70.5563 21.9618 70.5831C21.9082 70.6726 21.8679 70.7486 21.841 70.8113C21.8232 70.8739 21.8008 70.9813 21.7739 71.1334C21.7113 71.4645 21.6353 71.7105 21.5458 71.8716C21.4563 72.0237 21.2997 72.1221 21.076 72.1668C20.3871 72.3011 19.7652 72.395 19.2104 72.4487C18.6646 72.5113 18.0651 72.5426 17.412 72.5426C16.7498 72.5426 16.2264 72.5024 15.8417 72.4218C15.4659 72.3503 15.184 72.2116 14.9961 72.0058C14.8172 71.8 14.7277 71.4958 14.7277 71.0931C14.7277 70.5026 14.929 69.3662 15.3316 67.6841H15.1437C15.0274 67.6841 14.9782 67.6483 14.9961 67.5767C15.0051 67.4962 15.0632 67.3709 15.1706 67.2009C15.278 67.022 15.3674 66.9325 15.439 66.9325H15.5061C15.7119 66.0646 15.8596 65.4024 15.949 64.9461C16.0475 64.4898 16.0967 64.1542 16.0967 63.9395C16.0967 63.8142 16.0698 63.7382 16.0161 63.7113C15.9625 63.6755 15.8461 63.6576 15.6672 63.6576C15.2109 63.6576 14.7501 63.7292 14.2848 63.8724L14.2445 63.859C14.2535 63.7337 14.2803 63.5547 14.325 63.3221C14.3787 63.0895 14.4279 62.9374 14.4727 62.8658C15.3138 62.9284 16.1638 62.9597 17.0227 62.9597L22.3511 62.9463ZM31.047 69.3618C31.1275 69.3618 31.1902 69.3931 31.2349 69.4557C31.2796 69.5094 31.302 69.581 31.302 69.6705C31.302 69.912 31.1499 70.2699 30.8457 70.7442C30.5504 71.2094 30.1522 71.6255 29.6512 71.9924C29.1501 72.3503 28.5954 72.5292 27.9869 72.5292C27.5216 72.5292 27.1593 72.4174 26.8998 72.1937C26.6492 71.961 26.524 71.6568 26.524 71.281C26.524 71.0573 26.5642 70.78 26.6448 70.4489C26.7342 70.1178 26.855 69.7018 27.0072 69.2007C27.1503 68.7354 27.2666 68.3194 27.3561 67.9525C27.3472 67.8988 27.3114 67.872 27.2487 67.872C27.1235 67.872 26.8819 68.033 26.524 68.3552C26.1661 68.6773 25.8126 69.0396 25.4637 69.4423C25.1147 69.8449 24.9 70.1447 24.8195 70.3415C24.6584 71.0663 24.56 71.5495 24.5242 71.791C24.4884 72.0237 24.466 72.1534 24.4571 72.1803C24.4481 72.2071 24.4392 72.2429 24.4302 72.2876C24.4213 72.3234 24.4079 72.3458 24.39 72.3547C24.381 72.3637 24.3631 72.3682 24.3363 72.3682C24.2021 72.3682 23.9918 72.3592 23.7055 72.3413C23.4192 72.3234 23.276 72.2966 23.276 72.2608C23.3297 71.9387 23.4684 71.2676 23.6921 70.2476C23.7368 69.997 23.7592 69.8762 23.7592 69.8852L24.3631 66.9325C24.3721 66.8698 24.39 66.8341 24.4168 66.8251C24.4526 66.8072 24.5197 66.7983 24.6181 66.7983C25.0387 66.7983 25.3429 66.8654 25.5308 66.9996C25.5218 67.0354 25.4726 67.2591 25.3832 67.6707C25.2937 68.0733 25.1639 68.5878 24.9939 69.2141C25.495 68.6057 26.0095 68.0554 26.5374 67.5633C27.0653 67.0712 27.4232 66.8251 27.6111 66.8251C27.7095 66.8251 27.9064 66.8743 28.2017 66.9727C28.5059 67.0712 28.6669 67.1517 28.6848 67.2143L28.4432 68.127C28.2106 68.9591 28.0361 69.6212 27.9198 70.1134C27.8035 70.6055 27.7453 70.9813 27.7453 71.2408C27.7453 71.6524 27.9377 71.8581 28.3225 71.8581C28.6356 71.8581 28.9756 71.7374 29.3425 71.4958C29.7183 71.2452 30.0583 70.9276 30.3625 70.5428C30.6757 70.1492 30.9038 69.7555 31.047 69.3618ZM40.6031 58.1683C41.1041 58.1683 41.5157 58.2935 41.8378 58.5441C42.1689 58.7857 42.3613 59.1257 42.415 59.5641V59.6849C41.8871 59.4344 41.2652 59.3091 40.5494 59.3091C39.8515 59.3091 39.2565 59.403 38.7643 59.5909C38.2812 59.7788 37.8338 60.1681 37.4222 60.7586C37.0195 61.3402 36.6661 62.2081 36.3619 63.3624C36.0308 64.6061 35.7042 66.0198 35.3821 67.6036C35.06 69.1873 34.899 70.2252 34.899 70.7173C34.899 71.0484 34.9482 71.29 35.0466 71.4421C35.154 71.5942 35.3061 71.6702 35.5029 71.6702C35.9056 71.6702 36.3485 71.4689 36.8316 71.0663C37.3148 70.6547 37.7354 70.1313 38.0933 69.496C38.2096 69.5318 38.2677 69.6212 38.2677 69.7644C38.2677 70.0597 38.1156 70.4221 37.8114 70.8515C37.5161 71.281 37.118 71.6524 36.6169 71.9655C36.1248 72.2787 35.6013 72.4353 35.0466 72.4353C34.7066 72.4353 34.4203 72.3279 34.1876 72.1132C33.955 71.8895 33.7984 71.5852 33.7179 71.2005C33.4584 71.5495 33.1452 71.8492 32.7784 72.0997C32.4205 72.3503 32.076 72.4755 31.7449 72.4755C31.4944 72.4755 31.2573 72.3995 31.0336 72.2474C30.8188 72.0953 30.6444 71.9074 30.5101 71.6837C30.3849 71.451 30.3222 71.2273 30.3222 71.0126C30.3849 70.7979 30.443 70.5518 30.4967 70.2744C30.5504 69.9881 30.5996 69.7062 30.6444 69.4289C30.6712 69.2947 30.698 69.1381 30.7249 68.9591C30.7607 68.7712 30.8009 68.5654 30.8457 68.3417C30.8815 68.1538 31.0157 67.9301 31.2483 67.6707C31.4899 67.4112 31.7852 67.1875 32.1341 66.9996C32.492 66.8117 32.8589 66.7177 33.2347 66.7177C33.5568 66.7177 33.9147 66.8385 34.3084 67.0801C34.4516 66.3285 34.6037 65.6038 34.7647 64.9058C35.3016 62.5974 36.0756 60.8973 37.0867 59.8057C38.1067 58.7141 39.2788 58.1683 40.6031 58.1683ZM34.1876 67.7243C34.0445 67.6349 33.8834 67.5633 33.7045 67.5096C33.5255 67.4559 33.3644 67.4291 33.2213 67.4291C32.9439 67.4291 32.6889 67.532 32.4563 67.7378C32.2326 67.9436 32.0805 68.203 31.9999 68.5162C31.9462 68.7399 31.8568 69.1694 31.7315 69.8047C31.651 70.252 31.5794 70.5965 31.5168 70.8381C31.5168 71.0618 31.5704 71.2587 31.6778 71.4287C31.7941 71.5897 31.9283 71.6702 32.0805 71.6702C32.4384 71.6702 32.7873 71.451 33.1273 71.0126C33.4763 70.5652 33.7313 69.9657 33.8924 69.2141L34.1876 67.7243ZM45.3192 67.4962C45.4356 67.5409 45.4937 67.6349 45.4937 67.778C45.4937 68.0286 45.3729 68.2701 45.1313 68.5028C44.8898 68.7265 44.5721 68.9099 44.1784 69.0531C43.7937 69.1962 43.3955 69.2678 42.9839 69.2678C42.6618 69.2678 42.3307 69.2186 41.9907 69.1202C41.9818 69.1828 41.9684 69.2544 41.9505 69.3349C41.9326 69.4065 41.9147 69.496 41.8968 69.6033C41.8699 69.7465 41.8162 70.0105 41.7357 70.3952C41.6641 70.78 41.6194 71.0529 41.6015 71.2139C41.5299 71.366 41.3778 71.545 41.1452 71.7508C40.9125 71.9476 40.6396 72.1176 40.3265 72.2608C40.0133 72.404 39.7046 72.4755 39.4004 72.4755C39.1051 72.4755 38.8054 72.404 38.5011 72.2608C38.1969 72.1176 37.9419 71.9253 37.7361 71.6837C37.5393 71.4331 37.4409 71.1647 37.4409 70.8784C37.5661 70.3952 37.6601 69.997 37.7227 69.6839C37.7853 69.3707 37.8614 68.9233 37.9509 68.3417C37.9867 68.127 38.1298 67.8988 38.3804 67.6572C38.6398 67.4067 38.953 67.2009 39.3199 67.0399C39.6957 66.8788 40.0625 66.7983 40.4204 66.7983H40.5949C40.6217 66.6372 40.6844 66.5209 40.7828 66.4493C40.8812 66.3688 41.0289 66.3285 41.2257 66.3285C41.521 66.3285 41.7089 66.3867 41.7894 66.503C41.6999 66.8788 41.6552 67.1472 41.6552 67.3083C41.6552 67.7109 41.7984 68.0286 42.0847 68.2612C42.3799 68.4938 42.7871 68.6102 43.306 68.6102C43.7445 68.6102 44.1471 68.5207 44.514 68.3417C44.8808 68.1628 45.1492 67.8809 45.3192 67.4962ZM39.5346 71.7508C39.7136 71.7508 39.897 71.6881 40.0849 71.5629C40.2728 71.4287 40.398 71.281 40.4607 71.12C40.5502 70.6368 40.6352 70.2252 40.7157 69.8852C40.7425 69.7599 40.7828 69.5586 40.8365 69.2812C40.8991 69.0039 40.9483 68.7533 40.9841 68.5296C40.7604 68.3059 40.6217 68.0375 40.5681 67.7243C40.5681 67.6886 40.5591 67.6572 40.5412 67.6304C40.5323 67.6036 40.5144 67.5857 40.4875 67.5767C40.4338 67.5588 40.3578 67.5499 40.2594 67.5499C39.9551 67.5499 39.7046 67.6393 39.5078 67.8183C39.3109 67.9883 39.1856 68.212 39.132 68.4894C38.9441 69.3662 38.7741 70.1492 38.6219 70.8381C38.6309 71.1155 38.7338 71.3392 38.9306 71.5092C39.1275 71.6702 39.3288 71.7508 39.5346 71.7508ZM50.6476 67.5767C50.7191 67.6214 50.7549 67.6796 50.7549 67.7512C50.7549 67.948 50.6744 68.1449 50.5133 68.3417C50.3523 68.5386 50.1286 68.6996 49.8423 68.8249C49.5559 68.9502 49.2428 69.0128 48.9028 69.0128C48.4285 69.0128 48.0483 68.892 47.7619 68.6504C47.4756 68.4088 47.3235 68.1001 47.3056 67.7243C46.9119 67.7601 46.563 67.9212 46.2587 68.2075C45.9635 68.4938 45.7398 68.8428 45.5877 69.2544V69.2812C45.5519 69.3707 45.5295 69.4378 45.5206 69.4826C45.44 69.7689 45.2656 70.686 44.9971 72.2339C44.9882 72.3234 44.7958 72.3682 44.42 72.3682C44.0621 72.3682 43.8831 72.3055 43.8831 72.1803C43.8831 72.1087 43.91 71.9253 43.9637 71.63C44.1247 70.7263 44.2992 69.7868 44.4871 68.8115C44.675 67.8362 44.7913 67.2725 44.8361 67.1204C44.8719 66.9862 44.9345 66.8967 45.024 66.852C45.1224 66.8072 45.2521 66.7848 45.4132 66.7848C45.7174 66.7848 45.9769 66.8296 46.1916 66.9191C46.1201 67.1249 46.0216 67.4917 45.8964 68.0196C46.1469 67.6617 46.4288 67.3754 46.7419 67.1606C47.064 66.9459 47.3906 66.8385 47.7217 66.8385C47.8738 66.8385 48.0035 66.8609 48.1109 66.9056C48.2183 66.9414 48.2854 66.9862 48.3122 67.0399C48.3122 67.9525 48.6478 68.4088 49.3188 68.4088C49.8557 68.4088 50.2986 68.1315 50.6476 67.5767ZM56.5851 69.5497C56.7372 69.6212 56.8132 69.7599 56.8132 69.9657C56.8132 70.1357 56.7238 70.346 56.5448 70.5965C56.0527 71.2587 55.3995 71.7329 54.5853 72.0192C53.78 72.3055 52.9479 72.4487 52.0889 72.4487C51.1941 72.4487 50.7468 72.2966 50.7468 71.9924C50.7468 71.8939 50.7646 71.8089 50.8004 71.7374C50.8362 71.6568 50.8586 71.5987 50.8675 71.5629C51.0912 71.6434 51.3283 71.6837 51.5789 71.6837C51.9905 71.6837 52.2992 71.5629 52.505 71.3213C52.7197 71.0797 52.8763 70.7531 52.9747 70.3415C53.0731 69.921 53.1984 69.232 53.3505 68.2746C53.3595 68.1583 53.2566 68.0286 53.0418 67.8854C52.836 67.7333 52.6526 67.6572 52.4915 67.6572C52.3752 67.6572 52.2276 67.7064 52.0486 67.8049C51.8697 67.9033 51.6863 68.0778 51.4984 68.3283C51.3194 68.5699 51.1718 68.892 51.0554 69.2947C50.957 69.6347 50.8496 70.1268 50.7333 70.771C50.617 71.4063 50.4604 72.3413 50.2636 73.5761C50.2278 73.8177 50.0936 74.6319 49.8609 76.0188C49.6372 77.4057 49.3912 78.7255 49.1228 79.9781C49.0691 80.2108 48.9751 80.3852 48.8409 80.5016C48.7156 80.6268 48.5635 80.7163 48.3846 80.77C48.1967 80.8237 47.9327 80.8774 47.5927 80.931C47.1006 81.0026 46.6801 81.0876 46.3311 81.1861L46.1969 81.1189C46.6979 80.77 47.0648 80.4658 47.2974 80.2063C47.5211 79.9468 47.6867 79.6605 47.794 79.3473C47.8925 79.0341 48.0177 78.5152 48.1698 77.7904C48.8946 74.3009 49.3867 71.8716 49.6462 70.5026C49.9146 69.1336 50.1159 68.0509 50.2502 67.2546C50.3038 67.0041 50.3665 66.6596 50.4381 66.2211C50.4649 66.078 50.5052 65.9706 50.5589 65.899C50.6215 65.8274 50.7065 65.7693 50.8139 65.7245C51.1539 65.5814 51.3776 65.483 51.4849 65.4293C51.6013 65.3756 51.7444 65.2861 51.9144 65.1608C51.9681 65.1787 52.0039 65.2056 52.0218 65.2414C52.0128 65.2772 51.9815 65.3487 51.9278 65.4561C51.8831 65.5545 51.8428 65.6619 51.807 65.7782C51.7623 65.9124 51.7041 66.1361 51.6326 66.4493C51.561 66.7535 51.4984 67.013 51.4447 67.2278L51.3239 67.7512C51.5744 67.4649 51.8473 67.2233 52.1426 67.0264C52.4468 66.8296 52.7152 66.7312 52.9479 66.7312C53.1537 66.7312 53.3952 66.8027 53.6726 66.9459C53.95 67.0891 54.1916 67.268 54.3974 67.4828C54.6032 67.6886 54.7106 67.8765 54.7195 68.0465C54.5853 68.8428 54.469 69.4333 54.3705 69.8181C54.2811 70.1939 54.1245 70.5518 53.9008 70.8918C53.686 71.2318 53.3774 71.5047 52.9747 71.7105C53.6995 71.6568 54.3526 71.4555 54.9342 71.1065C55.5158 70.7576 56.0661 70.2386 56.5851 69.5497ZM63.009 57.7656C63.6711 57.7656 64.2035 57.9312 64.6062 58.2622C65.0088 58.5843 65.2907 58.9691 65.4517 59.4165C65.6128 59.8639 65.6933 60.2889 65.6933 60.6915L65.5994 60.8928C65.3936 60.2665 65.1028 59.8146 64.727 59.5373C64.3512 59.2509 63.8546 59.1078 63.2372 59.1078C61.9577 59.1078 60.8974 59.7028 60.0563 60.8928C59.2152 62.0739 58.5442 63.9305 58.0431 66.4627C57.9894 66.7312 57.8686 67.3217 57.6807 68.2344L57.5331 68.9054C57.9357 68.3865 58.3831 67.9033 58.8752 67.4559C59.3763 66.9996 59.7342 66.7714 59.9489 66.7714C60.0742 66.7714 60.2666 66.8385 60.5261 66.9727C60.7855 67.107 60.9153 67.2054 60.9153 67.268C60.7453 67.8675 60.5708 68.5744 60.3918 69.3886C60.2129 70.2028 60.1234 70.78 60.1234 71.12C60.1234 71.5942 60.3471 71.8313 60.7945 71.8313C61.1613 71.8313 61.5371 71.6971 61.9219 71.4287C62.3156 71.1602 62.669 70.8247 62.9822 70.4221C63.2953 70.0194 63.5146 69.6347 63.6398 69.2678C63.7025 69.2947 63.7517 69.3304 63.7875 69.3752C63.8233 69.411 63.8412 69.4781 63.8412 69.5765C63.8412 69.6749 63.8277 69.7778 63.8009 69.8852C63.7204 70.2252 63.4967 70.6055 63.1298 71.026C62.763 71.4376 62.329 71.791 61.8279 72.0863C61.3269 72.3816 60.8303 72.5292 60.3382 72.5292C59.8908 72.5292 59.5463 72.3995 59.3047 72.14C59.0631 71.8805 58.9423 71.5181 58.9423 71.0529C58.9423 70.7307 58.9915 70.3505 59.09 69.912C59.1884 69.4736 59.3405 68.8562 59.5463 68.0599C59.5373 68.0241 59.5194 67.9972 59.4926 67.9794C59.4658 67.9615 59.4389 67.9525 59.4121 67.9525C59.3137 67.9525 59.1258 68.0644 58.8484 68.288C58.5799 68.5117 58.2981 68.7981 58.0028 69.147C57.7076 69.496 57.4794 69.8494 57.3183 70.2073C57.2825 70.3505 57.2244 70.6771 57.1439 71.1871L56.9962 71.9789C56.9604 72.1847 56.9202 72.31 56.8754 72.3547C56.8396 72.3995 56.768 72.4218 56.6607 72.4218C56.437 72.4218 56.2267 72.3995 56.0299 72.3547C55.833 72.31 55.7391 72.2474 55.748 72.1668L55.842 71.6568C56.1015 70.4757 56.2804 69.6526 56.3788 69.1873C56.4773 68.7131 56.5488 68.3552 56.5936 68.1136C56.6562 67.7467 56.7591 67.192 56.9023 66.4493C57.287 64.4271 57.8015 62.7674 58.4457 61.47C59.09 60.1725 59.8013 59.233 60.5797 58.6514C61.3582 58.0609 62.1679 57.7656 63.009 57.7656ZM64.6189 72.4621C64.2073 72.4621 63.8807 72.3547 63.6391 72.14C63.3975 71.9163 63.2767 71.5629 63.2767 71.0797C63.2767 70.9634 63.2812 70.8739 63.2901 70.8113L63.7196 68.7712C63.8986 67.8586 64.0149 67.2993 64.0686 67.0935C64.1133 66.9862 64.1983 66.9012 64.3236 66.8385C64.4489 66.7669 64.592 66.7312 64.7531 66.7312C64.8962 66.7312 65.0126 66.7625 65.102 66.8251C65.2005 66.8788 65.2541 66.9414 65.2631 67.013C65.0752 67.8451 64.8202 69.0754 64.4981 70.7039C64.4891 70.7755 64.4846 70.8694 64.4846 70.9858C64.4846 71.2363 64.5383 71.4152 64.6457 71.5226C64.7531 71.63 64.9097 71.6837 65.1155 71.6837C65.4734 71.6837 65.8581 71.5584 66.2697 71.3079C66.6813 71.0484 67.0616 70.7307 67.4105 70.3549C67.7684 69.9702 68.0458 69.5899 68.2427 69.2141C68.3769 69.2678 68.444 69.3573 68.444 69.4826C68.444 69.572 68.4261 69.666 68.3903 69.7644C68.3545 69.8539 68.3321 69.912 68.3232 69.9389C68.1532 70.3415 67.8579 70.7397 67.4374 71.1334C67.0258 71.5271 66.5605 71.8492 66.0415 72.0997C65.5315 72.3413 65.0573 72.4621 64.6189 72.4621ZM64.9141 65.3353C64.6994 65.3353 64.5339 65.2727 64.4175 65.1474C64.3102 65.0222 64.2565 64.8522 64.2565 64.6374C64.2565 64.36 64.337 64.1274 64.4981 63.9395C64.6591 63.7516 64.8783 63.6576 65.1557 63.6576C65.3705 63.6576 65.536 63.7158 65.6523 63.8321C65.7686 63.9484 65.8268 64.114 65.8268 64.3287C65.8268 64.6061 65.7418 64.8432 65.5718 65.0401C65.4018 65.2369 65.1826 65.3353 64.9141 65.3353ZM74.7322 69.3618C74.8128 69.3618 74.8754 69.3931 74.9201 69.4557C74.9649 69.5094 74.9872 69.581 74.9872 69.6705C74.9872 69.912 74.8351 70.2699 74.5309 70.7442C74.2356 71.2094 73.8375 71.6255 73.3364 71.9924C72.8353 72.3503 72.2806 72.5292 71.6721 72.5292C71.2069 72.5292 70.8445 72.4174 70.585 72.1937C70.3345 71.961 70.2092 71.6568 70.2092 71.281C70.2092 71.0573 70.2495 70.78 70.33 70.4489C70.4195 70.1178 70.5403 69.7018 70.6924 69.2007C70.8355 68.7354 70.9519 68.3194 71.0413 67.9525C71.0324 67.8988 70.9966 67.872 70.934 67.872C70.8087 67.872 70.5671 68.033 70.2092 68.3552C69.8513 68.6773 69.4979 69.0396 69.1489 69.4423C68.8 69.8449 68.5852 70.1447 68.5047 70.3415C68.3436 71.0663 68.2452 71.5495 68.2094 71.791C68.1736 72.0237 68.1513 72.1534 68.1423 72.1803C68.1334 72.2071 68.1244 72.2429 68.1155 72.2876C68.1065 72.3234 68.0931 72.3458 68.0752 72.3547C68.0663 72.3637 68.0484 72.3682 68.0215 72.3682C67.8873 72.3682 67.677 72.3592 67.3907 72.3413C67.1044 72.3234 66.9612 72.2966 66.9612 72.2608C67.0149 71.9387 67.1536 71.2676 67.3773 70.2476C67.422 69.997 67.4444 69.8762 67.4444 69.8852L68.0484 66.9325C68.0573 66.8698 68.0752 66.8341 68.102 66.8251C68.1378 66.8072 68.2049 66.7983 68.3034 66.7983C68.7239 66.7983 69.0281 66.8654 69.216 66.9996C69.2071 67.0354 69.1579 67.2591 69.0684 67.6707C68.9789 68.0733 68.8492 68.5878 68.6792 69.2141C69.1802 68.6057 69.6947 68.0554 70.2226 67.5633C70.7505 67.0712 71.1084 66.8251 71.2963 66.8251C71.3948 66.8251 71.5916 66.8743 71.8869 66.9727C72.1911 67.0712 72.3522 67.1517 72.3701 67.2143L72.1285 68.127C71.8958 68.9591 71.7214 69.6212 71.605 70.1134C71.4887 70.6055 71.4306 70.9813 71.4306 71.2408C71.4306 71.6524 71.6229 71.8581 72.0077 71.8581C72.3208 71.8581 72.6609 71.7374 73.0277 71.4958C73.4035 71.2452 73.7435 70.9276 74.0477 70.5428C74.3609 70.1492 74.5891 69.7555 74.7322 69.3618ZM78.9709 72.4621C78.5593 72.4621 78.2327 72.3547 77.9911 72.14C77.7495 71.9163 77.6287 71.5629 77.6287 71.0797C77.6287 70.9634 77.6332 70.8739 77.6422 70.8113L78.0717 68.7712C78.2506 67.8586 78.3669 67.2993 78.4206 67.0935C78.4654 66.9862 78.5504 66.9012 78.6756 66.8385C78.8009 66.7669 78.9441 66.7312 79.1051 66.7312C79.2483 66.7312 79.3646 66.7625 79.4541 66.8251C79.5525 66.8788 79.6062 66.9414 79.6151 67.013C79.4272 67.8451 79.1722 69.0754 78.8501 70.7039C78.8412 70.7755 78.8367 70.8694 78.8367 70.9858C78.8367 71.2363 78.8904 71.4152 78.9977 71.5226C79.1051 71.63 79.2617 71.6837 79.4675 71.6837C79.8254 71.6837 80.2101 71.5584 80.6217 71.3079C81.0333 71.0484 81.4136 70.7307 81.7626 70.3549C82.1205 69.9702 82.3978 69.5899 82.5947 69.2141C82.7289 69.2678 82.796 69.3573 82.796 69.4826C82.796 69.572 82.7781 69.666 82.7423 69.7644C82.7065 69.8539 82.6842 69.912 82.6752 69.9389C82.5052 70.3415 82.2099 70.7397 81.7894 71.1334C81.3778 71.5271 80.9125 71.8492 80.3936 72.0997C79.8836 72.3413 79.4093 72.4621 78.9709 72.4621ZM79.2662 65.3353C79.0514 65.3353 78.8859 65.2727 78.7696 65.1474C78.6622 65.0222 78.6085 64.8522 78.6085 64.6374C78.6085 64.36 78.689 64.1274 78.8501 63.9395C79.0112 63.7516 79.2304 63.6576 79.5078 63.6576C79.7225 63.6576 79.888 63.7158 80.0043 63.8321C80.1207 63.9484 80.1788 64.114 80.1788 64.3287C80.1788 64.6061 80.0938 64.8432 79.9238 65.0401C79.7538 65.2369 79.5346 65.3353 79.2662 65.3353ZM89.0843 69.3618C89.1648 69.3618 89.2274 69.3931 89.2722 69.4557C89.3169 69.5094 89.3393 69.581 89.3393 69.6705C89.3393 69.912 89.1872 70.2699 88.8829 70.7442C88.5877 71.2094 88.1895 71.6255 87.6884 71.9924C87.1874 72.3503 86.6326 72.5292 86.0242 72.5292C85.5589 72.5292 85.1965 72.4174 84.937 72.1937C84.6865 71.961 84.5612 71.6568 84.5612 71.281C84.5612 71.0573 84.6015 70.78 84.682 70.4489C84.7715 70.1178 84.8923 69.7018 85.0444 69.2007C85.1876 68.7354 85.3039 68.3194 85.3934 67.9525C85.3844 67.8988 85.3486 67.872 85.286 67.872C85.1607 67.872 84.9191 68.033 84.5612 68.3552C84.2033 68.6773 83.8499 69.0396 83.5009 69.4423C83.152 69.8449 82.9372 70.1447 82.8567 70.3415C82.6957 71.0663 82.5972 71.5495 82.5614 71.791C82.5257 72.0237 82.5033 72.1534 82.4943 72.1803C82.4854 72.2071 82.4764 72.2429 82.4675 72.2876C82.4585 72.3234 82.4451 72.3458 82.4272 72.3547C82.4183 72.3637 82.4004 72.3682 82.3735 72.3682C82.2393 72.3682 82.0291 72.3592 81.7427 72.3413C81.4564 72.3234 81.3133 72.2966 81.3133 72.2608C81.3669 71.9387 81.5056 71.2676 81.7293 70.2476C81.7741 69.997 81.7964 69.8762 81.7964 69.8852L82.4004 66.9325C82.4093 66.8698 82.4272 66.8341 82.4541 66.8251C82.4899 66.8072 82.557 66.7983 82.6554 66.7983C83.0759 66.7983 83.3802 66.8654 83.5681 66.9996C83.5591 67.0354 83.5099 67.2591 83.4204 67.6707C83.3309 68.0733 83.2012 68.5878 83.0312 69.2141C83.5323 68.6057 84.0468 68.0554 84.5747 67.5633C85.1026 67.0712 85.4605 66.8251 85.6484 66.8251C85.7468 66.8251 85.9436 66.8743 86.2389 66.9727C86.5431 67.0712 86.7042 67.1517 86.7221 67.2143L86.4805 68.127C86.2479 68.9591 86.0734 69.6212 85.9571 70.1134C85.8408 70.6055 85.7826 70.9813 85.7826 71.2408C85.7826 71.6524 85.975 71.8581 86.3597 71.8581C86.6729 71.8581 87.0129 71.7374 87.3797 71.4958C87.7555 71.2452 88.0956 70.9276 88.3998 70.5428C88.7129 70.1492 88.9411 69.7555 89.0843 69.3618ZM98.1815 69.2947C98.3336 69.3662 98.4097 69.4691 98.4097 69.6033C98.4097 70.006 98.1725 70.431 97.6983 70.8784C97.233 71.3168 96.6514 71.6881 95.9535 71.9924C95.2646 72.2876 94.6248 72.4353 94.0343 72.4353C93.5511 72.4353 93.1395 72.3368 92.7995 72.14C92.4595 71.9432 92.2 71.7239 92.021 71.4823C91.851 71.2318 91.766 71.0484 91.766 70.9321C91.8287 70.6994 91.8868 70.4221 91.9405 70.0999C92.0032 69.7778 92.0479 69.5541 92.0747 69.4289C92.1016 69.2678 92.1329 69.0799 92.1687 68.8652C92.2134 68.6415 92.2671 68.3865 92.3297 68.1001C92.3655 67.9212 92.5221 67.7243 92.7995 67.5096C93.0769 67.2859 93.39 67.1025 93.739 66.9593C94.0969 66.8072 94.3922 66.7312 94.6248 66.7312C94.8217 66.7312 95.0543 66.7848 95.3227 66.8922C95.6001 66.9996 95.8372 67.1517 96.0341 67.3485C96.2309 67.5364 96.3293 67.7601 96.3293 68.0196C96.3293 68.3507 96.1638 68.6728 95.8327 68.986C95.5106 69.2991 95.099 69.5586 94.598 69.7644C94.0969 69.9613 93.6048 70.0686 93.1216 70.0865L93.0142 70.6502C93.0411 70.9276 93.1708 71.1692 93.4035 71.375C93.6361 71.5718 93.9851 71.6702 94.4503 71.6702C94.8977 71.6702 95.363 71.5674 95.8462 71.3616C96.3383 71.1558 96.7901 70.8739 97.2017 70.516C97.6223 70.1492 97.9489 69.742 98.1815 69.2947ZM94.504 67.2949C94.2803 67.2949 94.0611 67.4022 93.8464 67.617C93.6406 67.8317 93.5108 68.0465 93.4571 68.2612L93.229 69.4826C93.7658 69.4468 94.2222 69.2902 94.598 69.0128C94.9738 68.7354 95.1617 68.4088 95.1617 68.033C95.1617 67.8093 95.0946 67.6304 94.9603 67.4962C94.8351 67.362 94.683 67.2949 94.504 67.2949ZM101.053 66.503C101.563 66.664 101.939 66.8564 102.181 67.0801C102.422 67.3038 102.543 67.5946 102.543 67.9525C102.543 68.3462 102.409 68.7623 102.14 69.2007C101.881 69.6302 101.559 70.0463 101.174 70.4489C100.798 70.8515 100.279 71.375 99.6172 72.0192L99.2548 72.3682H98.4092C98.4629 72.2787 98.4942 72.2026 98.5032 72.14C98.4495 71.4063 98.3645 70.6994 98.2482 70.0194C98.1408 69.3394 98.0379 68.7936 97.9395 68.382C97.85 67.9972 97.7605 67.7467 97.6711 67.6304C97.5816 67.5051 97.4474 67.438 97.2684 67.4291L96.8255 67.4157C96.8255 67.3441 96.8345 67.268 96.8524 67.1875C96.8702 67.107 96.8971 67.0488 96.9329 67.013C97.2013 66.9772 97.4071 66.9414 97.5503 66.9056C97.7024 66.8609 97.8411 66.8117 97.9663 66.758C98.1005 66.7043 98.1945 66.6685 98.2482 66.6506C98.4808 66.7133 98.6508 66.8296 98.7582 66.9996C98.8656 67.1696 98.9685 67.5007 99.0669 67.9928C99.1474 68.3596 99.2101 68.7667 99.2548 69.2141C99.2995 69.6615 99.3622 70.3952 99.4427 71.4152C100.042 70.7263 100.499 70.0776 100.812 69.4691C101.134 68.8607 101.295 68.2701 101.295 67.6975C101.295 67.4559 101.264 67.2501 101.201 67.0801C101.138 66.9012 101.044 66.7312 100.919 66.5701L101.053 66.503ZM109.702 69.2947C109.855 69.3662 109.931 69.4691 109.931 69.6033C109.931 70.006 109.693 70.431 109.219 70.8784C108.754 71.3168 108.172 71.6881 107.474 71.9924C106.786 72.2876 106.146 72.4353 105.555 72.4353C105.072 72.4353 104.66 72.3368 104.32 72.14C103.98 71.9432 103.721 71.7239 103.542 71.4823C103.372 71.2318 103.287 71.0484 103.287 70.9321C103.35 70.6994 103.408 70.4221 103.461 70.0999C103.524 69.7778 103.569 69.5541 103.596 69.4289C103.623 69.2678 103.654 69.0799 103.69 68.8652C103.734 68.6415 103.788 68.3865 103.851 68.1001C103.886 67.9212 104.043 67.7243 104.32 67.5096C104.598 67.2859 104.911 67.1025 105.26 66.9593C105.618 66.8072 105.913 66.7312 106.146 66.7312C106.343 66.7312 106.575 66.7848 106.844 66.8922C107.121 66.9996 107.358 67.1517 107.555 67.3485C107.752 67.5364 107.85 67.7601 107.85 68.0196C107.85 68.3507 107.685 68.6728 107.354 68.986C107.032 69.2991 106.62 69.5586 106.119 69.7644C105.618 69.9613 105.126 70.0686 104.643 70.0865L104.535 70.6502C104.562 70.9276 104.692 71.1692 104.924 71.375C105.157 71.5718 105.506 71.6702 105.971 71.6702C106.419 71.6702 106.884 71.5674 107.367 71.3616C107.859 71.1558 108.311 70.8739 108.723 70.516C109.143 70.1492 109.47 69.742 109.702 69.2947ZM106.025 67.2949C105.801 67.2949 105.582 67.4022 105.367 67.617C105.162 67.8317 105.032 68.0465 104.978 68.2612L104.75 69.4826C105.287 69.4468 105.743 69.2902 106.119 69.0128C106.495 68.7354 106.683 68.4088 106.683 68.033C106.683 67.8093 106.616 67.6304 106.481 67.4962C106.356 67.362 106.204 67.2949 106.025 67.2949ZM115.514 67.5767C115.585 67.6214 115.621 67.6796 115.621 67.7512C115.621 67.948 115.54 68.1449 115.379 68.3417C115.218 68.5386 114.995 68.6996 114.708 68.8249C114.422 68.9502 114.109 69.0128 113.769 69.0128C113.294 69.0128 112.914 68.892 112.628 68.6504C112.342 68.4088 112.189 68.1001 112.172 67.7243C111.778 67.7601 111.429 67.9212 111.125 68.2075C110.829 68.4938 110.606 68.8428 110.454 69.2544V69.2812C110.418 69.3707 110.395 69.4378 110.387 69.4826C110.306 69.7689 110.132 70.686 109.863 72.2339C109.854 72.3234 109.662 72.3682 109.286 72.3682C108.928 72.3682 108.749 72.3055 108.749 72.1803C108.749 72.1087 108.776 71.9253 108.83 71.63C108.991 70.7263 109.165 69.7868 109.353 68.8115C109.541 67.8362 109.657 67.2725 109.702 67.1204C109.738 66.9862 109.8 66.8967 109.89 66.852C109.988 66.8072 110.118 66.7848 110.279 66.7848C110.583 66.7848 110.843 66.8296 111.058 66.9191C110.986 67.1249 110.888 67.4917 110.762 68.0196C111.013 67.6617 111.295 67.3754 111.608 67.1606C111.93 66.9459 112.257 66.8385 112.588 66.8385C112.74 66.8385 112.869 66.8609 112.977 66.9056C113.084 66.9414 113.151 66.9862 113.178 67.0399C113.178 67.9525 113.514 68.4088 114.185 68.4088C114.722 68.4088 115.165 68.1315 115.514 67.5767ZM118.337 66.758C118.552 66.758 118.803 66.7848 119.089 66.8385C119.384 66.8833 119.545 66.9593 119.572 67.0667C119.429 67.7646 119.254 68.5744 119.049 69.496C118.843 70.4176 118.659 71.1737 118.498 71.7642C117.953 73.8222 117.147 75.5848 116.082 77.0522C115.027 78.5197 113.559 79.2534 111.68 79.2534C110.839 79.2534 110.213 79.0968 109.801 78.7836C109.39 78.4794 109.184 78.0991 109.184 77.6428C109.184 77.3386 109.278 77.0657 109.466 76.8241C109.734 77.1641 110.114 77.4459 110.606 77.6696C111.099 77.8933 111.671 78.0052 112.324 78.0052C113.094 78.0052 113.778 77.8128 114.378 77.428C114.977 77.0433 115.528 76.3901 116.029 75.4685C116.53 74.5469 116.995 73.2898 117.425 71.6971C117.156 71.885 116.883 72.046 116.606 72.1803C116.329 72.3055 116.1 72.3682 115.921 72.3682C115.742 72.3682 115.537 72.3145 115.304 72.2071C115.071 72.0908 114.87 71.9432 114.7 71.7642C114.539 71.5852 114.458 71.3973 114.458 71.2005C114.494 71.0215 114.566 70.6144 114.673 69.9791C114.834 68.8965 115.004 67.957 115.183 67.1606C115.237 66.9101 115.425 66.7848 115.747 66.7848C115.854 66.7848 115.993 66.7938 116.163 66.8117C116.333 66.8206 116.445 66.8341 116.499 66.852C116.355 67.5051 116.163 68.4983 115.921 69.8315C115.841 70.3326 115.774 70.7039 115.72 70.9455C115.711 71.1423 115.765 71.3079 115.881 71.4421C115.997 71.5674 116.132 71.63 116.284 71.63C116.472 71.63 116.704 71.5405 116.982 71.3616C117.268 71.1737 117.483 70.9858 117.626 70.7979L117.881 69.3483C118.123 68.033 118.275 67.1696 118.337 66.758ZM125.51 72.5426C125.179 72.5426 124.875 72.4845 124.598 72.3682C124.32 72.2518 124.101 72.1042 123.94 71.9253C123.779 71.7374 123.698 71.545 123.698 71.3481C123.698 71.1692 123.761 71.0305 123.886 70.9321C124.012 70.8247 124.155 70.7621 124.316 70.7442C124.423 71.1021 124.584 71.3839 124.799 71.5897C125.014 71.7955 125.278 71.8984 125.591 71.8984C125.913 71.8984 126.177 71.8 126.383 71.6031C126.588 71.3973 126.691 71.1602 126.691 70.8918C126.691 70.6681 126.624 70.4757 126.49 70.3147C126.356 70.1447 126.141 69.9434 125.846 69.7107C125.542 69.4691 125.313 69.2544 125.161 69.0665C125.009 68.8786 124.933 68.6549 124.933 68.3954C124.933 68.1091 125.027 67.8407 125.215 67.5901C125.412 67.3396 125.658 67.1427 125.953 66.9996C126.257 66.8475 126.557 66.7714 126.852 66.7714C127.183 66.7714 127.501 66.8519 127.805 67.013C128.11 67.1651 128.262 67.3441 128.262 67.5499C128.262 67.6483 128.226 67.7467 128.154 67.8451C128.083 67.9436 127.975 68.0241 127.832 68.0867C127.707 67.872 127.573 67.7109 127.43 67.6036C127.295 67.4962 127.13 67.4425 126.933 67.4425C126.718 67.4425 126.53 67.5051 126.369 67.6304C126.208 67.7467 126.128 67.9122 126.128 68.127C126.128 68.3149 126.195 68.4894 126.329 68.6504C126.463 68.8025 126.669 68.9904 126.946 69.2141C127.277 69.4826 127.523 69.7197 127.685 69.9255C127.855 70.1223 127.94 70.3594 127.94 70.6368C127.94 70.95 127.823 71.2542 127.591 71.5495C127.367 71.8447 127.067 72.0863 126.691 72.2742C126.325 72.4532 125.931 72.5426 125.51 72.5426ZM134.632 70.006C134.686 70.0776 134.713 70.1536 134.713 70.2342C134.713 70.2968 134.695 70.3907 134.659 70.516C134.534 70.8023 134.265 71.1021 133.854 71.4152C133.442 71.7284 132.977 71.9879 132.458 72.1937C131.948 72.3995 131.5 72.5024 131.116 72.5024C130.686 72.5024 130.351 72.3726 130.109 72.1132C129.876 71.8537 129.76 71.5047 129.76 71.0663C129.76 70.5831 129.939 69.4154 130.297 67.5633L128.968 67.617C128.959 67.617 128.941 67.5946 128.915 67.5499C128.888 67.5051 128.87 67.4693 128.861 67.4425C129.004 67.1562 129.12 66.9504 129.21 66.8251H130.431L131.049 63.7382C131.621 63.4161 132.149 63.2058 132.632 63.1074C132.668 63.1074 132.708 63.1342 132.753 63.1879C132.807 63.2326 132.834 63.2729 132.834 63.3087C132.476 63.4787 132.257 63.7561 132.176 64.1408C132.051 64.6956 131.867 65.5948 131.626 66.8385L134.149 66.852C134.14 66.8877 134.136 66.9414 134.136 67.013C134.145 67.0846 134.149 67.1383 134.149 67.1741C134.149 67.2546 134.127 67.3128 134.082 67.3485C134.037 67.3843 133.97 67.4022 133.881 67.4022L131.505 67.5096C131.165 69.2902 130.995 70.4176 130.995 70.8918C130.995 71.1334 131.058 71.3258 131.183 71.4689C131.308 71.6121 131.505 71.6837 131.773 71.6837C132.176 71.6837 132.628 71.5316 133.129 71.2273C133.63 70.9231 134.131 70.516 134.632 70.006ZM140.333 69.2947C140.485 69.3662 140.561 69.4691 140.561 69.6033C140.561 70.006 140.324 70.431 139.85 70.8784C139.385 71.3168 138.803 71.6881 138.105 71.9924C137.416 72.2876 136.777 72.4353 136.186 72.4353C135.703 72.4353 135.291 72.3368 134.951 72.14C134.611 71.9432 134.352 71.7239 134.173 71.4823C134.003 71.2318 133.918 71.0484 133.918 70.9321C133.98 70.6994 134.039 70.4221 134.092 70.0999C134.155 69.7778 134.2 69.5541 134.226 69.4289C134.253 69.2678 134.285 69.0799 134.32 68.8652C134.365 68.6415 134.419 68.3865 134.481 68.1001C134.517 67.9212 134.674 67.7243 134.951 67.5096C135.229 67.2859 135.542 67.1025 135.891 66.9593C136.249 66.8072 136.544 66.7312 136.777 66.7312C136.973 66.7312 137.206 66.7848 137.474 66.8922C137.752 66.9996 137.989 67.1517 138.186 67.3485C138.383 67.5364 138.481 67.7601 138.481 68.0196C138.481 68.3507 138.316 68.6728 137.984 68.986C137.662 69.2991 137.251 69.5586 136.75 69.7644C136.249 69.9613 135.757 70.0686 135.273 70.0865L135.166 70.6502C135.193 70.9276 135.323 71.1692 135.555 71.375C135.788 71.5718 136.137 71.6702 136.602 71.6702C137.049 71.6702 137.515 71.5674 137.998 71.3616C138.49 71.1558 138.942 70.8739 139.353 70.516C139.774 70.1492 140.101 69.742 140.333 69.2947ZM136.656 67.2949C136.432 67.2949 136.213 67.4022 135.998 67.617C135.792 67.8317 135.663 68.0465 135.609 68.2612L135.381 69.4826C135.918 69.4468 136.374 69.2902 136.75 69.0128C137.125 68.7354 137.313 68.4088 137.313 68.033C137.313 67.8093 137.246 67.6304 137.112 67.4962C136.987 67.362 136.835 67.2949 136.656 67.2949ZM146.708 69.5497C146.86 69.6212 146.936 69.7599 146.936 69.9657C146.936 70.1357 146.847 70.346 146.668 70.5965C146.176 71.2587 145.522 71.7329 144.708 72.0192C143.903 72.3055 143.071 72.4487 142.212 72.4487C141.317 72.4487 140.87 72.2966 140.87 71.9924C140.87 71.8939 140.888 71.8089 140.923 71.7374C140.959 71.6568 140.982 71.5987 140.99 71.5629C141.214 71.6434 141.451 71.6837 141.702 71.6837C142.113 71.6837 142.422 71.5629 142.628 71.3213C142.843 71.0797 142.999 70.7531 143.098 70.3415C143.196 69.921 143.321 69.232 143.473 68.2746C143.482 68.1583 143.379 68.0286 143.165 67.8854C142.959 67.7333 142.776 67.6572 142.614 67.6572C142.498 67.6572 142.35 67.7064 142.172 67.8049C141.993 67.9033 141.809 68.0778 141.621 68.3283C141.442 68.5699 141.295 68.892 141.178 69.2947C141.08 69.6347 140.973 70.1268 140.856 70.771C140.74 71.4063 140.583 72.3413 140.386 73.5761C140.351 73.8177 140.216 74.6319 139.984 76.0188C139.76 77.4057 139.514 78.7255 139.246 79.9781C139.192 80.2108 139.098 80.3852 138.964 80.5016C138.839 80.6268 138.686 80.7163 138.507 80.77C138.32 80.8237 138.056 80.8774 137.716 80.931C137.223 81.0026 136.803 81.0876 136.454 81.1861L136.32 81.1189C136.821 80.77 137.188 80.4658 137.42 80.2063C137.644 79.9468 137.81 79.6605 137.917 79.3473C138.015 79.0341 138.141 78.5152 138.293 77.7904C139.017 74.3009 139.51 71.8716 139.769 70.5026C140.038 69.1336 140.239 68.0509 140.373 67.2546C140.427 67.0041 140.489 66.6596 140.561 66.2211C140.588 66.078 140.628 65.9706 140.682 65.899C140.744 65.8274 140.829 65.7693 140.937 65.7245C141.277 65.5814 141.5 65.483 141.608 65.4293C141.724 65.3756 141.867 65.2861 142.037 65.1608C142.091 65.1787 142.127 65.2056 142.145 65.2414C142.136 65.2772 142.104 65.3487 142.051 65.4561C142.006 65.5545 141.966 65.6619 141.93 65.7782C141.885 65.9124 141.827 66.1361 141.755 66.4493C141.684 66.7535 141.621 67.013 141.568 67.2278L141.447 67.7512C141.697 67.4649 141.97 67.2233 142.265 67.0264C142.57 66.8296 142.838 66.7312 143.071 66.7312C143.277 66.7312 143.518 66.8027 143.796 66.9459C144.073 67.0891 144.314 67.268 144.52 67.4828C144.726 67.6886 144.833 67.8765 144.842 68.0465C144.708 68.8428 144.592 69.4333 144.493 69.8181C144.404 70.1939 144.247 70.5518 144.024 70.8918C143.809 71.2318 143.5 71.5047 143.098 71.7105C143.822 71.6568 144.476 71.4555 145.057 71.1065C145.639 70.7576 146.189 70.2386 146.708 69.5497ZM154.659 70.006C154.713 70.0776 154.74 70.1536 154.74 70.2342C154.74 70.2968 154.722 70.3907 154.686 70.516C154.561 70.8023 154.293 71.1021 153.881 71.4152C153.469 71.7284 153.004 71.9879 152.485 72.1937C151.975 72.3995 151.528 72.5024 151.143 72.5024C150.714 72.5024 150.378 72.3726 150.136 72.1132C149.904 71.8537 149.787 71.5047 149.787 71.0663C149.787 70.5831 149.966 69.4154 150.324 67.5633L148.996 67.617C148.987 67.617 148.969 67.5946 148.942 67.5499C148.915 67.5051 148.897 67.4693 148.888 67.4425C149.031 67.1562 149.148 66.9504 149.237 66.8251H150.459L151.076 63.7382C151.649 63.4161 152.176 63.2058 152.66 63.1074C152.695 63.1074 152.736 63.1342 152.78 63.1879C152.834 63.2326 152.861 63.2729 152.861 63.3087C152.503 63.4787 152.284 63.7561 152.203 64.1408C152.078 64.6956 151.895 65.5948 151.653 66.8385L154.176 66.852C154.167 66.8877 154.163 66.9414 154.163 67.013C154.172 67.0846 154.176 67.1383 154.176 67.1741C154.176 67.2546 154.154 67.3128 154.109 67.3485C154.064 67.3843 153.997 67.4022 153.908 67.4022L151.532 67.5096C151.192 69.2902 151.022 70.4176 151.022 70.8918C151.022 71.1334 151.085 71.3258 151.21 71.4689C151.335 71.6121 151.532 71.6837 151.801 71.6837C152.203 71.6837 152.655 71.5316 153.156 71.2273C153.657 70.9231 154.158 70.516 154.659 70.006ZM161.944 67.4962C162.061 67.5409 162.119 67.6349 162.119 67.778C162.119 68.0286 161.998 68.2701 161.756 68.5028C161.515 68.7265 161.197 68.9099 160.803 69.0531C160.419 69.1962 160.021 69.2678 159.609 69.2678C159.287 69.2678 158.956 69.2186 158.616 69.1202C158.607 69.1828 158.593 69.2544 158.575 69.3349C158.558 69.4065 158.54 69.496 158.522 69.6033C158.495 69.7465 158.441 70.0105 158.361 70.3952C158.289 70.78 158.244 71.0529 158.227 71.2139C158.155 71.366 158.003 71.545 157.77 71.7508C157.538 71.9476 157.265 72.1176 156.951 72.2608C156.638 72.404 156.33 72.4755 156.025 72.4755C155.73 72.4755 155.43 72.404 155.126 72.2608C154.822 72.1176 154.567 71.9253 154.361 71.6837C154.164 71.4331 154.066 71.1647 154.066 70.8784C154.191 70.3952 154.285 69.997 154.348 69.6839C154.41 69.3707 154.486 68.9233 154.576 68.3417C154.612 68.127 154.755 67.8988 155.005 67.6572C155.265 67.4067 155.578 67.2009 155.945 67.0399C156.321 66.8788 156.688 66.7983 157.045 66.7983H157.22C157.247 66.6372 157.309 66.5209 157.408 66.4493C157.506 66.3688 157.654 66.3285 157.851 66.3285C158.146 66.3285 158.334 66.3867 158.414 66.503C158.325 66.8788 158.28 67.1472 158.28 67.3083C158.28 67.7109 158.423 68.0286 158.71 68.2612C159.005 68.4938 159.412 68.6102 159.931 68.6102C160.369 68.6102 160.772 68.5207 161.139 68.3417C161.506 68.1628 161.774 67.8809 161.944 67.4962ZM156.16 71.7508C156.339 71.7508 156.522 71.6881 156.71 71.5629C156.898 71.4287 157.023 71.281 157.086 71.12C157.175 70.6368 157.26 70.2252 157.341 69.8852C157.368 69.7599 157.408 69.5586 157.461 69.2812C157.524 69.0039 157.573 68.7533 157.609 68.5296C157.385 68.3059 157.247 68.0375 157.193 67.7243C157.193 67.6886 157.184 67.6572 157.166 67.6304C157.157 67.6036 157.139 67.5857 157.113 67.5767C157.059 67.5588 156.983 67.5499 156.884 67.5499C156.58 67.5499 156.33 67.6393 156.133 67.8183C155.936 67.9883 155.811 68.212 155.757 68.4894C155.569 69.3662 155.399 70.1492 155.247 70.8381C155.256 71.1155 155.359 71.3392 155.556 71.5092C155.752 71.6702 155.954 71.7508 156.16 71.7508ZM165.649 66.6775C165.738 66.7312 165.783 66.7893 165.783 66.852C165.783 66.9504 165.622 67.7333 165.3 69.2007C164.978 70.6681 164.785 71.545 164.722 71.8313L164.535 72.6903C163.935 75.4104 163.094 77.343 162.011 78.4883C160.938 79.6426 159.667 80.2197 158.2 80.2197C157.233 80.2197 156.544 80.0229 156.133 79.6292C155.721 79.2355 155.515 78.7657 155.515 78.2199C155.515 78.032 155.538 77.8352 155.582 77.6294C155.627 77.4236 155.685 77.2625 155.757 77.1462C156.008 77.701 156.379 78.1081 156.871 78.3676C157.354 78.636 157.918 78.7702 158.562 78.7702C159.716 78.7702 160.642 78.4123 161.34 77.6965C162.038 76.9896 162.53 76.2156 162.817 75.3746C163.103 74.5335 163.327 73.6611 163.488 72.7574C163.497 72.6948 163.546 72.4263 163.635 71.9521C163.421 72.1132 163.197 72.2429 162.964 72.3413C162.732 72.4308 162.526 72.4755 162.347 72.4755C162.114 72.4755 161.855 72.3995 161.568 72.2474C161.291 72.0953 161.054 71.9074 160.857 71.6837C160.66 71.46 160.562 71.2452 160.562 71.0394C160.759 70.1894 160.951 69.2499 161.139 68.2209C161.175 68.0241 161.331 67.8004 161.609 67.5499C161.886 67.2904 162.199 67.0712 162.548 66.8922C162.906 66.7133 163.21 66.6238 163.461 66.6238C163.622 66.6238 163.801 66.664 163.998 66.7446C164.195 66.8162 164.378 66.9191 164.548 67.0533L164.655 66.3285L164.709 66.3151C164.754 66.3777 164.852 66.4314 165.004 66.4761C165.165 66.5209 165.259 66.5477 165.286 66.5567C165.483 66.6104 165.604 66.6506 165.649 66.6775ZM164.36 68.1001C164.405 67.8765 164.427 67.7467 164.427 67.7109C164.186 67.4783 163.913 67.362 163.609 67.362C163.313 67.362 163.036 67.4738 162.776 67.6975C162.526 67.9122 162.356 68.1896 162.266 68.5296L162.025 69.7912L161.837 70.865C161.837 71.0976 161.913 71.2989 162.065 71.4689C162.226 71.6389 162.41 71.7239 162.615 71.7239C162.776 71.7239 162.951 71.6702 163.139 71.5629C163.327 71.4555 163.492 71.3034 163.635 71.1065C163.787 70.9008 163.89 70.6592 163.944 70.3818L164.36 68.1001ZM173.376 69.2947C173.528 69.3662 173.604 69.4691 173.604 69.6033C173.604 70.006 173.367 70.431 172.892 70.8784C172.427 71.3168 171.846 71.6881 171.148 71.9924C170.459 72.2876 169.819 72.4353 169.228 72.4353C168.745 72.4353 168.334 72.3368 167.994 72.14C167.654 71.9432 167.394 71.7239 167.215 71.4823C167.045 71.2318 166.96 71.0484 166.96 70.9321C167.023 70.6994 167.081 70.4221 167.135 70.0999C167.197 69.7778 167.242 69.5541 167.269 69.4289C167.296 69.2678 167.327 69.0799 167.363 68.8652C167.408 68.6415 167.461 68.3865 167.524 68.1001C167.56 67.9212 167.716 67.7243 167.994 67.5096C168.271 67.2859 168.584 67.1025 168.933 66.9593C169.291 66.8072 169.586 66.7312 169.819 66.7312C170.016 66.7312 170.248 66.7848 170.517 66.8922C170.794 66.9996 171.031 67.1517 171.228 67.3485C171.425 67.5364 171.524 67.7601 171.524 68.0196C171.524 68.3507 171.358 68.6728 171.027 68.986C170.705 69.2991 170.293 69.5586 169.792 69.7644C169.291 69.9613 168.799 70.0686 168.316 70.0865L168.208 70.6502C168.235 70.9276 168.365 71.1692 168.598 71.375C168.83 71.5718 169.179 71.6702 169.645 71.6702C170.092 71.6702 170.557 71.5674 171.04 71.3616C171.532 71.1558 171.984 70.8739 172.396 70.516C172.816 70.1492 173.143 69.742 173.376 69.2947ZM169.698 67.2949C169.474 67.2949 169.255 67.4022 169.041 67.617C168.835 67.8317 168.705 68.0465 168.651 68.2612L168.423 69.4826C168.96 69.4468 169.416 69.2902 169.792 69.0128C170.168 68.7354 170.356 68.4088 170.356 68.033C170.356 67.8093 170.289 67.6304 170.155 67.4962C170.029 67.362 169.877 67.2949 169.698 67.2949ZM184.059 69.0799C184.229 69.1515 184.314 69.3081 184.314 69.5497C184.314 69.8986 184.13 70.3147 183.763 70.7979C183.406 71.2721 182.949 71.6792 182.394 72.0192C181.849 72.3592 181.303 72.5292 180.757 72.5292C180.265 72.5292 179.88 72.3861 179.603 72.0997C179.334 71.8134 179.2 71.4331 179.2 70.9589C179.2 70.6457 179.254 70.2297 179.361 69.7107C179.469 69.1918 179.607 68.5833 179.777 67.8854C179.759 67.8049 179.724 67.7646 179.67 67.7646C179.571 67.7646 179.375 67.8988 179.079 68.1673C178.793 68.4267 178.493 68.7533 178.18 69.147C177.867 69.5318 177.625 69.912 177.455 70.2878L177.12 72.046C177.084 72.225 177.048 72.3368 177.012 72.3816C176.977 72.4353 176.901 72.4621 176.784 72.4621C176.614 72.4621 176.404 72.4442 176.153 72.4084C175.912 72.3816 175.796 72.3368 175.805 72.2742C175.876 71.8895 176.051 71.026 176.328 69.6839C176.605 68.3417 176.811 67.353 176.945 66.7177C176.945 66.6998 176.95 66.6864 176.959 66.6775C176.1 67.0264 175.214 67.2859 174.301 67.4559C174.113 68.3238 173.961 69.1381 173.845 69.8986C173.729 70.6592 173.671 71.2363 173.671 71.63C173.671 71.97 173.729 72.2071 173.845 72.3413C173.156 72.4308 172.762 72.4755 172.664 72.4755C172.574 72.4755 172.507 72.4353 172.463 72.3547C172.427 72.2653 172.409 72.1266 172.409 71.9387C172.409 71.5718 172.472 70.9992 172.597 70.2207C172.731 69.4423 172.901 68.5833 173.107 67.6438C172.48 67.7154 171.894 67.7512 171.349 67.7512C171.259 67.7512 171.196 67.7154 171.161 67.6438C171.223 67.5543 171.313 67.4291 171.429 67.268C171.537 67.107 171.613 67.0041 171.657 66.9593C172.203 66.9593 172.744 66.9325 173.281 66.8788C173.612 65.4472 173.89 64.4003 174.113 63.7382C174.292 63.604 174.547 63.4742 174.878 63.349C175.21 63.2147 175.5 63.1297 175.751 63.0939C175.778 63.1118 175.8 63.1387 175.818 63.1745C175.845 63.2013 175.858 63.2282 175.858 63.255C175.697 63.3087 175.567 63.3892 175.469 63.4966C175.38 63.604 175.29 63.774 175.201 64.0066C174.995 64.5614 174.749 65.4651 174.462 66.7177C175.42 66.5388 176.306 66.2748 177.12 65.9259C177.558 64.1632 178.1 62.6779 178.744 61.47C179.397 60.2531 180.086 59.6446 180.811 59.6446C181.428 59.6446 181.737 60.1323 181.737 61.1076C181.737 62.1187 181.424 63.0492 180.797 63.8992C180.171 64.7493 179.312 65.474 178.22 66.0735C178.086 66.5835 177.979 67.0577 177.898 67.4962C177.871 67.6304 177.845 67.7646 177.818 67.8988C177.8 68.033 177.782 68.1628 177.764 68.288C177.746 68.3775 177.728 68.4804 177.71 68.5967C177.701 68.7041 177.684 68.816 177.657 68.9323C178.068 68.3865 178.529 67.8943 179.039 67.4559C179.558 67.0085 179.979 66.7848 180.301 66.7848C180.48 66.7848 180.663 66.8475 180.851 66.9727C181.039 67.0891 181.133 67.192 181.133 67.2814C180.99 67.7199 180.829 68.373 180.65 69.241C180.48 70.0999 180.395 70.7173 180.395 71.0931C180.395 71.3258 180.444 71.5047 180.542 71.63C180.641 71.7463 180.806 71.8045 181.039 71.8045C181.45 71.8045 181.862 71.6434 182.274 71.3213C182.685 70.9902 183.048 70.6144 183.361 70.1939C183.674 69.7644 183.907 69.3931 184.059 69.0799ZM180.677 60.4499C180.363 60.4499 180.001 60.9241 179.589 61.8726C179.187 62.8121 178.802 63.9305 178.435 65.228C179.223 64.7179 179.831 64.114 180.26 63.4161C180.699 62.7181 180.918 61.9397 180.918 61.0807C180.918 60.8481 180.9 60.687 180.864 60.5976C180.829 60.4991 180.766 60.4499 180.677 60.4499ZM189.825 69.2947C189.977 69.3662 190.053 69.4691 190.053 69.6033C190.053 70.006 189.816 70.431 189.342 70.8784C188.876 71.3168 188.295 71.6881 187.597 71.9924C186.908 72.2876 186.268 72.4353 185.678 72.4353C185.194 72.4353 184.783 72.3368 184.443 72.14C184.103 71.9432 183.843 71.7239 183.664 71.4823C183.494 71.2318 183.409 71.0484 183.409 70.9321C183.472 70.6994 183.53 70.4221 183.584 70.0999C183.646 69.7778 183.691 69.5541 183.718 69.4289C183.745 69.2678 183.776 69.0799 183.812 68.8652C183.857 68.6415 183.91 68.3865 183.973 68.1001C184.009 67.9212 184.165 67.7243 184.443 67.5096C184.72 67.2859 185.033 67.1025 185.382 66.9593C185.74 66.8072 186.035 66.7312 186.268 66.7312C186.465 66.7312 186.698 66.7848 186.966 66.8922C187.243 66.9996 187.481 67.1517 187.677 67.3485C187.874 67.5364 187.973 67.7601 187.973 68.0196C187.973 68.3507 187.807 68.6728 187.476 68.986C187.154 69.2991 186.742 69.5586 186.241 69.7644C185.74 69.9613 185.248 70.0686 184.765 70.0865L184.658 70.6502C184.684 70.9276 184.814 71.1692 185.047 71.375C185.279 71.5718 185.628 71.6702 186.094 71.6702C186.541 71.6702 187.006 71.5674 187.489 71.3616C187.982 71.1558 188.433 70.8739 188.845 70.516C189.266 70.1492 189.592 69.742 189.825 69.2947ZM186.147 67.2949C185.924 67.2949 185.704 67.4022 185.49 67.617C185.284 67.8317 185.154 68.0465 185.1 68.2612L184.872 69.4826C185.409 69.4468 185.865 69.2902 186.241 69.0128C186.617 68.7354 186.805 68.4088 186.805 68.033C186.805 67.8093 186.738 67.6304 186.604 67.4962C186.478 67.362 186.326 67.2949 186.147 67.2949ZM195.636 67.5767C195.707 67.6214 195.743 67.6796 195.743 67.7512C195.743 67.948 195.663 68.1449 195.502 68.3417C195.341 68.5386 195.117 68.6996 194.831 68.8249C194.544 68.9502 194.231 69.0128 193.891 69.0128C193.417 69.0128 193.037 68.892 192.75 68.6504C192.464 68.4088 192.312 68.1001 192.294 67.7243C191.9 67.7601 191.551 67.9212 191.247 68.2075C190.952 68.4938 190.728 68.8428 190.576 69.2544V69.2812C190.54 69.3707 190.518 69.4378 190.509 69.4826C190.428 69.7689 190.254 70.686 189.985 72.2339C189.976 72.3234 189.784 72.3682 189.408 72.3682C189.05 72.3682 188.871 72.3055 188.871 72.1803C188.871 72.1087 188.898 71.9253 188.952 71.63C189.113 70.7263 189.288 69.7868 189.475 68.8115C189.663 67.8362 189.78 67.2725 189.824 67.1204C189.86 66.9862 189.923 66.8967 190.012 66.852C190.111 66.8072 190.24 66.7848 190.402 66.7848C190.706 66.7848 190.965 66.8296 191.18 66.9191C191.108 67.1249 191.01 67.4917 190.885 68.0196C191.135 67.6617 191.417 67.3754 191.73 67.1606C192.052 66.9459 192.379 66.8385 192.71 66.8385C192.862 66.8385 192.992 66.8609 193.099 66.9056C193.207 66.9414 193.274 66.9862 193.301 67.0399C193.301 67.9525 193.636 68.4088 194.307 68.4088C194.844 68.4088 195.287 68.1315 195.636 67.5767Z" fill="#6949FF"/>
<defs>
<linearGradient id="paint0_linear_3003_5789" x1="27.3073" y1="14.8696" x2="163.403" y2="48.8479" gradientUnits="userSpaceOnUse">
<stop stop-color="#6020BD"/>
<stop offset="0.283654" stop-color="#2BCBE0"/>
<stop offset="1" stop-color="#D056B6"/>
</linearGradient>
</defs>
</svg>
